<svg viewBox="0 0 48 48" xmlns="http://www.w3.org/2000/svg"><g fill="none" fill-rule="evenodd"><path d="M7.287 26.565c.511-.434.762-1.094.729-1.763a15.88 15.88 0 0 1 0-1.601c.035-.67-.216-1.33-.728-1.765L3.72 18.41a2 2 0 0 1-.438-2.525l3.33-5.77a2 2 0 0 1 2.407-.883l4.409 1.579c.63.225 1.327.113 1.889-.25.448-.29.911-.557 1.386-.8.596-.306 1.041-.853 1.16-1.511l.838-4.608A2 2 0 0 1 20.67 2h6.662A2 2 0 0 1 29.3 3.642l.837 4.603c.12.66.567 1.208 1.164 1.514.478.244.94.511 1.387.8.562.363 1.26.476 1.89.25l4.404-1.577a2 2 0 0 1 2.406.883l3.331 5.77a2 2 0 0 1-.438 2.525l-3.567 3.025c-.511.434-.762 1.094-.729 1.763.027.53.027 1.064 0 1.601-.035.67.216 1.33.728 1.765l3.568 3.026a2 2 0 0 1 .438 2.525l-3.33 5.77a2 2 0 0 1-2.407.883l-4.409-1.579c-.63-.225-1.327-.113-1.889.25-.448.29-.911.557-1.386.8-.596.306-1.04.853-1.16 1.511l-.838 4.608c-.05.275-.156.53-.303.75-.362.543-9.63.543-9.992 0a1.995 1.995 0 0 1-.303-.75l-.837-4.603c-.12-.66-.567-1.208-1.164-1.514a15.908 15.908 0 0 1-1.386-.8c-.563-.363-1.26-.476-1.892-.25L9.02 38.768a2 2 0 0 1-2.406-.883l-3.331-5.77a2 2 0 0 1 .438-2.525l3.567-3.025z" fill="#00897B"/><path d="M20.67 46h6.66a2 2 0 0 0 1.67-.898V29H19v16.102a2 2 0 0 0 1.67.898z" fill="#F5F5F5"/><path d="M39.998 24.427a11.56 11.56 0 0 1-.015.372c-.034.67.217 1.33.729 1.764l3.568 3.027a2 2 0 0 1 .438 2.525l-3.33 5.77a2 2 0 0 1-2.407.882l-4.409-1.578c-.63-.226-1.327-.114-1.889.25-.448.29-.911.556-1.386.8-.596.305-1.041.853-1.16 1.511l-.799 4.389L19 33.8V14.2l9.858 9.858L29 24l2.778-7.779c2.2 2.181 5.478 5.46 8.22 8.206z" fill-opacity=".1" fill="#000"/><path d="M24 35c6.075 0 11-4.925 11-11a11 11 0 0 0-6-9.8V24l-5 2-5-2v-9.8a11 11 0 0 0-6 9.8c0 6.075 4.925 11 11 11z" fill="#F5F5F5"/></g></svg>