<svg viewBox="0 0 32 32" xmlns="http://www.w3.org/2000/svg"><g fill="none" fill-rule="evenodd"><path d="M16 2c7.732 0 14 6.268 14 14v10.998A2.998 2.998 0 0 1 27.001 30H16C8.268 30 2 23.732 2 16S8.268 2 16 2z" fill="#FBBC05"/><path d="M30 20.1l-9.05-9.05-9.9 9.9L20.1 30h6.901A2.998 2.998 0 0 0 30 26.998v-6.897z" fill-opacity=".1" fill="#BF360C"/><path d="M23 22.442c0 .596-.344.736-.764.316l-1.563-1.56A6.979 6.979 0 0 1 16 22.982c-3.866 0-7-3.13-7-6.991 0-3.862 14 0 14 0v6.45z" fill="#F5F5F5"/><path d="M23 15.996V16H9v-.008C9 12.13 12.134 9 16 9s7 3.13 7 6.992v.004z" fill="#E0E0E0"/></g></svg>