<svg viewBox="0 0 48 48" xmlns="http://www.w3.org/2000/svg"><g fill="none" fill-rule="evenodd"><path d="M32 5v30l11-3V7.993A3.001 3.001 0 0 0 39.994 5H32z" fill="#EA4335"/><path d="M43 32H10l6 11h24.007A3.001 3.001 0 0 0 43 39.994V32z" fill="#FDC626"/><path fill-opacity=".1" fill="#BF360C" d="M13 43l3-11 11 11z"/><path d="M16 43V10L5 16v24.007A3.001 3.001 0 0 0 8.006 43H16z" fill="#34A853"/><path fill-opacity=".07" fill="#000" d="M5 16l11-6v17z"/><path d="M32 5v11H5V8.006A2.999 2.999 0 0 1 7.993 5H32z" fill="#4285F4"/></g></svg>