<svg viewBox="0 0 32 32" xmlns="http://www.w3.org/2000/svg"><g fill="none" fill-rule="evenodd"><path d="M21 4v19h7V6.005A2.005 2.005 0 0 0 25.995 4H21z" fill="#EA4335"/><path d="M28 21H7l1 7h17.995A2.005 2.005 0 0 0 28 25.995V21z" fill="#FDC626"/><path fill-opacity=".1" fill="#BF360C" d="M9 28l2-7 7 7z"/><path d="M11 28V7l-7 4v14.995C4 27.103 4.898 28 6.005 28H11z" fill="#34A853"/><path fill-opacity=".07" fill="#000" d="M4 11l7-4v11z"/><path d="M21 4v7H4V6.005C4 4.898 4.897 4 6.005 4H21z" fill="#4285F4"/></g></svg>