<svg viewBox="0 0 32 32" xmlns="http://www.w3.org/2000/svg"><g fill="none" fill-rule="evenodd"><path d="M6.005 4h19.99C27.102 4 28 4.897 28 6.005v19.99A2.005 2.005 0 0 1 25.995 28H6.005A2.005 2.005 0 0 1 4 25.995V6.005C4 4.898 4.897 4 6.005 4z" fill="#FF9800"/><path d="M28 18.36l-9.18-9.18-9.256.891L9.18 22.82 14.36 28h11.635A2.005 2.005 0 0 0 28 25.995V18.36z" fill-opacity=".1" fill="#000"/><path d="M8 11.996A4 4 0 0 1 11.996 8h4.008C18.211 8 20 9.8 20 12.002c0 1.104.888 1.998 2 1.998 1.105 0 2 .887 2 2v3.99A3.993 3.993 0 0 1 20.004 24h-8.008A3.986 3.986 0 0 1 8 20.004v-8.008zM12 19c0-.552.43-1 .981-1h6.038c.542 0 .981.464.981 1 0 .552-.43 1-.981 1h-6.038c-.542 0-.981-.464-.981-1zm0-6c0-.552.461-1 1.012-1h2.976c.559 0 1.012.464 1.012 1 0 .552-.461 1-1.012 1h-2.976A1.016 1.016 0 0 1 12 13z" fill="#F5F5F5"/></g></svg>