<svg viewBox="0 0 32 32" xmlns="http://www.w3.org/2000/svg"><g fill="none" fill-rule="evenodd"><path d="M5 6.005C5 4.898 5.89 4 6.991 4H25.01C26.109 4 27 4.894 27 6.005V9H5V6.005z" fill="#BDBDBD"/><path d="M6.005 8h19.99c1.107 0 1.916.887 1.805 2l-.8 8-11 4-11-4-.8-8c-.11-1.105.697-2 1.805-2z" fill="#3367D6"/><path d="M14.247 18a3.495 3.495 0 0 0-.073-.024 2.53 2.53 0 0 0 .683-.412 2.5 2.5 0 0 0 .468-.53c.12-.19.21-.383.27-.58.06-.199.089-.388.089-.568 0-.448-.07-.841-.211-1.18a2.305 2.305 0 0 0-.59-.847 2.525 2.525 0 0 0-.913-.514 3.801 3.801 0 0 0-1.187-.174c-.443 0-.847.069-1.21.207a2.861 2.861 0 0 0-.932.567 2.498 2.498 0 0 0-.81 1.875h1.219c0-.25.042-.478.125-.682a1.467 1.467 0 0 1 .9-.85c.213-.077.45-.116.708-.116.567 0 .99.144 1.266.432.277.288.415.707.415 1.256 0 .237-.04.456-.118.656-.08.2-.198.373-.356.52a1.672 1.672 0 0 1-.594.347 2.502 2.502 0 0 1-.83.125h-.87V18h2.551zm6.253 0v-3.3l-2.674.975v-1.107l3.494-1.312h.191L21.506 18H20.5z" fill="#CFCFCF"/><path d="M5 18h22l.4 8c.055 1.105-.802 2-1.9 2h-19a1.88 1.88 0 0 1-1.9-2l.4-8z" fill="#4285F4"/><path d="M16 18H5l10 10h10.5a1.888 1.888 0 0 0 1.9-2l-.4-8H16z" fill-opacity=".1" fill="#000"/><path d="M14.247 18c.284.098.525.223.722.375a2.09 2.09 0 0 1 .781 1.19c.052.224.079.443.079.659 0 .448-.077.847-.23 1.196a2.48 2.48 0 0 1-.64.88 2.833 2.833 0 0 1-.963.544c-.369.125-.77.188-1.206.188a3.9 3.9 0 0 1-1.18-.175 2.884 2.884 0 0 1-.969-.514 2.435 2.435 0 0 1-.656-.837 2.58 2.58 0 0 1-.24-1.137h1.226c0 .25.041.478.125.682.083.204.204.38.362.527.159.148.35.26.574.34.224.079.477.118.758.118s.534-.036.758-.108a1.49 1.49 0 0 0 .574-.333c.158-.15.279-.336.362-.56.084-.225.125-.486.125-.785a1.92 1.92 0 0 0-.145-.778 1.415 1.415 0 0 0-.412-.544 1.783 1.783 0 0 0-.642-.32 3.122 3.122 0 0 0-.844-.105h-.87V18h2.551zm6.253 0v5h1l.006-5H20.5z" fill="#F5F5F5"/><path d="M20.295 6.705l1.41-1.41L24.41 8h-2.82l-1.295-1.295zm-10 0l1.41-1.41L14.41 8h-2.82l-1.295-1.295z" fill-opacity=".1" fill="#000"/><path d="M21.707 6.705a.993.993 0 0 0-.002-1.41.996.996 0 0 0-1.412-.002.996.996 0 0 0 .002 1.412.994.994 0 0 0 1.412 0zm-10 0a.993.993 0 0 0-.002-1.41.996.996 0 0 0-1.412-.002.996.996 0 0 0 .002 1.412.994.994 0 0 0 1.412 0z" fill="#F5F5F5"/></g></svg>