<svg viewBox="0 0 48 48" xmlns="http://www.w3.org/2000/svg"><g fill="none" fill-rule="evenodd"><path d="M40 3H8a3 3 0 0 0-3 3l.058 21H43V6a3 3 0 0 0-3-3z" fill="#BDBDBD"/><path d="M42 9H6a3 3 0 0 0-2.973 3.41L5 27l19 5 19-5 1.972-14.59A3 3 0 0 0 42 9z" fill="#3367D6"/><path d="M43.992 41.792L43 27H5l-.992 14.792A3 3 0 0 0 7 45h34a3 3 0 0 0 2.992-3.208z" fill="#4285F4"/><path d="M41 45H23L5 27h38l.992 14.792A3 3 0 0 1 41 45z" fill-opacity=".1" fill="#000"/><path d="M31.25 27v-6.233l-4.5 1.506V20.25l6.4-2.25h.35v9h-2.25zm-15 0v-1.008h1.5c1.968 0 3.582-.972 3.582-3.082s-1.134-3.155-3.142-3.155c-2.117 0-3.24 1.398-3.24 3.082H12.8C12.8 19.97 15.207 18 18.19 18c3.325 0 5.295 1.887 5.295 4.957 0 1.993-1.552 3.318-2.755 3.816.182.053.388.127.603.227H16.25z" fill="#CFCFCF"/><path d="M16.25 27v.675h1.5c2.895 0 3.85 1.505 3.85 3.247 0 2.283-1.388 3.335-3.395 3.335-1.777 0-3.395-.96-3.395-3.12h-2.162c.034 3.438 2.9 4.863 5.555 4.863 3.04 0 5.547-1.77 5.547-5.125 0-2.252-1.338-3.377-2.417-3.875H16.25zm15 0v9h2.25v-9h-2.25z" fill="#F5F5F5"/><path d="M15.38 9l-1.94-1.94 2.12-2.12L19.622 9H15.38zm19 0l-1.94-1.94 2.12-2.12L38.623 9H34.38z" fill-opacity=".1" fill="#000"/><path d="M14.5 7.5a1.5 1.5 0 1 0 0-3 1.5 1.5 0 0 0 0 3zm19 0a1.5 1.5 0 1 0 0-3 1.5 1.5 0 0 0 0 3z" fill="#F5F5F5"/></g></svg>