<svg viewBox="0 0 32 32" xmlns="http://www.w3.org/2000/svg"><g fill="none" fill-rule="evenodd"><rect fill="#8F5829" x="4" y="6" width="24" height="18" rx="2"/><path d="M2 9.995C2 8.893 2.9 8 3.991 8H28.01C29.109 8 30 8.893 30 9.995v14.01A1.992 1.992 0 0 1 28 26h-7.005c-.55 0-1.144-.417-1.332-.944l-1.657-4.64C17.726 19.635 16.834 19 16 19c-.828 0-1.726.634-2.006 1.417l-1.657 4.639c-.186.521-.793.944-1.332.944H4c-1.105 0-2-.893-2-1.995V9.995zM10 20a3 3 0 1 0 0-6 3 3 0 0 0 0 6zm12 0a3 3 0 1 0 0-6 3 3 0 0 0 0 6z" fill="#D9A048"/></g></svg>