<svg viewBox="0 0 32 32" xmlns="http://www.w3.org/2000/svg"><g fill="none" fill-rule="evenodd"><rect fill="#4285F4" x="4" y="4" width="24" height="24" rx="2"/><path d="M16.714 20.888l-.043-.197-.198-.916-.06-.28-.27.098a5.555 5.555 0 0 1-1.906.359c-.745 0-1.338-.26-1.797-.783-.467-.532-.7-1.187-.7-1.978 0-.869.226-1.544.672-2.036.441-.488 1.038-.731 1.81-.731.527 0 1.125.114 1.794.345l.242.084.077-.245.3-.944.072-.224-.22-.085a6.26 6.26 0 0 0-2.28-.42c-1.236 0-2.247.39-3.016 1.17-.768.779-1.152 1.813-1.152 3.086 0 1.274.381 2.308 1.145 3.087.764.78 1.787 1.17 3.053 1.17.83 0 1.596-.159 2.293-.477l.184-.083zm3.72-10.656a.974.974 0 0 0-.71.31 1.02 1.02 0 0 0-.001 1.452c.2.205.441.313.711.313a1.022 1.022 0 0 0 1.026-1.041c0-.28-.101-.528-.298-.728a.992.992 0 0 0-.728-.306zm.807 11.018v-8.132H17.35v1.489h2.498l-.25-.25v6.893h1.643z" fill="#F5F5F5"/></g></svg>