<svg viewBox="0 0 32 32" xmlns="http://www.w3.org/2000/svg"><g fill="none" fill-rule="evenodd"><path d="M2 8v19.005C2 28.107 2.9 29 3.991 29H28.01c1.1 0 1.991-.902 1.991-1.995V8h-8V6l-2-2h-8l-2 2v2H2zm10-1c0-.552.453-1 .997-1h6.006c.55 0 .997.444.997 1v1h-8V7z" fill="#EAEAEA"/><path d="M6.746 29v-7.95A10.991 10.991 0 0 1 16 16a11 11 0 0 1 9.8 6H16l-4.041 7H6.746z" fill="#EA4335"/><path d="M11.378 29l-4.633-7.947A10.949 10.949 0 0 0 5 27c0 .683.062 1.351.181 2h6.197z" fill="#34A853"/><path d="M20.043 29L16 22h9.8c.767 1.5 1.2 3.2 1.2 5 0 .683-.062 1.351-.181 2h-6.776z" fill="#FDC626"/><path d="M20.584 29a5 5 0 1 0-9.168 0h9.168z" fill="#F5F5F5"/><path d="M19.465 29a4 4 0 1 0-6.93 0h6.93z" fill="#4285F4"/></g></svg>