<svg viewBox="0 0 32 32" xmlns="http://www.w3.org/2000/svg"><g fill="none" fill-rule="evenodd"><path d="M17.372 29.934c-.451.044-.909.066-1.372.066-7.732 0-14-6.268-14-14 0-4.776 2.391-8.993 6.042-11.52l2.761 14.518a5.996 5.996 0 0 0 10.389-.002l-3.82 10.938z" fill="#34A853"/><path d="M28.654 10.002C26.407 5.272 21.586 2 16 2A13.984 13.984 0 0 0 4.479 8.044L10.799 19a5.997 5.997 0 0 1 5.194-8.998h12.66z" fill="#EA4335"/><path d="M4.501 8.083l6.297 10.914a5.997 5.997 0 0 1-.108-5.803L4.5 8.084zM14.9 30l6.291-11.001-4.41-.343z" fill-opacity=".1" fill="#000"/><path d="M14.879 29.956L21.189 19s.803-1.913.803-3.006a5.996 5.996 0 0 0-5.999-5.995h12.659A13.946 13.946 0 0 1 30 16c0 7.732-6.268 14-14 14-.377 0-.751-.015-1.121-.044z" fill="#FBBC05"/><path fill-opacity=".1" fill="#BF360C" d="M28.6 10H15.995l1.908 3.989z"/><path d="M21.994 15.998a6 6 0 1 1-12 0 6 6 0 0 1 12 0z" fill="#F5F5F5"/><circle fill="#4285F4" cx="16" cy="16" r="4.5"/></g></svg>