<svg viewBox="0 0 32 32" xmlns="http://www.w3.org/2000/svg"><g fill="none" fill-rule="evenodd"><path d="M2.865 7.865L.27 5.27A9.974 9.974 0 0 1 7.667 2c.706 0 1.395.073 2.06.212A9.958 9.958 0 0 1 16 0c4.854 0 8.9 3.459 9.81 8.046A7.001 7.001 0 0 1 25 22H8A8 8 0 0 1 2.865 7.865zm11.499-1.229A8.972 8.972 0 0 0 8 4a8.972 8.972 0 0 0-6.364 2.636l1.23 1.23A7.968 7.968 0 0 1 8 6c1.955 0 3.745.7 5.135 1.865l1.229-1.229zm-2.516 2.516A6.967 6.967 0 0 0 8 8a6.967 6.967 0 0 0-3.848 1.152L5.53 10.53A5.99 5.99 0 0 1 8 10c.88 0 1.717.19 2.47.53l1.378-1.378z" fill="#EEE"/><path d="M26 16a1 1 0 0 1-1 1H6a1 1 0 0 1 0-2h19a1 1 0 0 1 1 1z" fill="#4D4D4D"/><path d="M25 29.006C25 30.107 24.11 31 23.003 31H7.997A1.997 1.997 0 0 1 6 29.006V15h19v14.006z" fill="#4285F4"/><path d="M9 18v2h13v-2H9zm0 4v2h13v-2H9z" fill="#FFF"/><path d="M25 22v-7l4.95 4.95A6.978 6.978 0 0 1 25 22z" fill-opacity=".1" fill="#000"/></g></svg>