<svg viewBox="0 0 32 32" xmlns="http://www.w3.org/2000/svg"><g fill="none" fill-rule="evenodd"><path d="M20.041 9l-7.144 2.37-4.834 6.922-3.443-6.377 4.03-7.052C8.922 4.386 9.6 4 10.15 4h11.7c.557 0 1.229.386 1.501.863L25.714 9h-5.673z" fill="#4285F4"/><path fill-opacity=".1" fill="#000" d="M5.223 11.333l7.217 7.217H5.223z"/><path d="M5.087 11.097L7.917 16l5.389 4.667 13.611.228-3.567 6.242c-.272.477-.95.863-1.501.863H10.15c-.557 0-1.229-.386-1.501-.863l-5.87-10.274c-.272-.477-.273-1.249 0-1.726l2.308-4.04z" fill="#FBBC05"/><path d="M25.714 9h-8.367l4.041 5.244L20.041 23l-2.886 5h4.694c.552 0 1.229-.386 1.501-.863l5.871-10.274c.273-.477.272-1.25 0-1.726L25.714 9z" fill="#EA4335"/><path d="M16.959 28l-5-5 8.852-4.378L20.041 9l8.701 8.701-5.392 9.436c-.272.477-.95.863-1.501.863h-4.89z" fill-opacity=".1" fill="#000"/><path d="M24.082 16l-4.04 7h-8.083l-4.041-7 4.04-7h8.083l4.041 7zm-8.07 3.512a3.5 3.5 0 1 0 0-7 3.5 3.5 0 0 0 0 7z" fill="#EEE"/></g></svg>