<svg viewBox="0 0 32 32" xmlns="http://www.w3.org/2000/svg"><g fill="none" fill-rule="evenodd"><path d="M26.011 27.974A1.991 1.991 0 0 0 28 25.972V5.995A1.986 1.986 0 0 0 26.011 4H6.01c-1.106 0-2.002.646-2.002 1.752v20.22c0 1.106.896 2.002 2.002 2.002h20.001z" fill="#F0F0F0"/><path d="M4 16.749v9.25C4 27.104 4.896 28 6.002 28h5.855L4 16.749z" fill="#A0C3FF"/><path fill="#E6E6E6" d="M13.08 28L4 15.34v1.409L11.857 28z"/><path d="M27.991 11.5V10h-2.998V4.026H23.5V10l-14.043.043-4.29-5.878c-.52.184-.919.55-1.083 1.064l15.26 21.284L18.271 28h1.855l4.144-5.5h3.721V21h-2.999v-9.5h3zM23.5 21l-3.23 4.23L10.5 11.5h13V21z" fill="#D4D4D4"/><path d="M16 13a3 3 0 1 0 0-6 3 3 0 0 0 0 6zm.01 1.5c-2.01 0-6.01 1-6.01 3.044V20.5h3l3 4 3-4h3v-2.956c0-2.044-4-3.044-5.99-3.044z" fill="#4285F4"/></g></svg>