<svg viewBox="0 0 32 32" xmlns="http://www.w3.org/2000/svg"><g fill="none" fill-rule="evenodd"><path d="M18.75 27c6.075 0 11-4.925 11-11s-4.925-11-11-11-11 4.925-11 11 4.925 11 11 11zm0-5.5a5.5 5.5 0 1 0 0-11 5.5 5.5 0 0 0 0 11z" fill="#34A853"/><path d="M13.25 27c6.075 0 11-4.925 11-11s-4.925-11-11-11-11 4.925-11 11 4.925 11 11 11zm0-5.5a5.5 5.5 0 1 0 0-11 5.5 5.5 0 0 0 0 11z" fill="#AEEA00"/><path d="M13.25 16h-5.5c0 6.075 4.925 11 11 11s11-4.925 11-11h-5.5a5.5 5.5 0 0 1-11 0z" fill="#34A853"/></g></svg>