<svg viewBox="0 0 32 32" xmlns="http://www.w3.org/2000/svg"><g fill="none" fill-rule="evenodd"><path d="M16 30c7.732 0 14-6.268 14-14V5.002A2.998 2.998 0 0 0 27.001 2H16C8.268 2 2 8.268 2 16s6.268 14 14 14z" fill="#4285F4"/><path d="M17.506 29.92l-9.213-9.213 12.414-9.414 3 3L24 12l5.875 5.875c-.85 6.355-5.964 11.36-12.37 12.045z" fill-opacity=".1" fill="#000"/><path d="M8 16v4a1 1 0 0 0 .999 1H20a.999.999 0 0 0 1-1.01V17l3 3v-4l-11-2-5 2z" fill="#F5F5F5"/><path d="M8 13.998v-2.003c0-.54.447-.995.999-.995H20c.552 0 .999.452.999 1.01V15l3-3v4H8v-2.002z" fill="#E0E0E0"/></g></svg>