<?xml version="1.0" encoding="UTF-8"?>
<svg width="32px" height="32px" viewBox="0 0 32 32" version="1.1" xmlns="http://www.w3.org/2000/svg" xmlns:xlink="http://www.w3.org/1999/xlink">
    <!-- Generator: Sketch 41.2 (35397) - http://www.bohemiancoding.com/sketch -->
    <title>Artboard_32dp</title>
    <desc>Created with Sketch.</desc>
    <defs></defs>
    <g id="Page-1" stroke="none" stroke-width="1" fill="none" fill-rule="evenodd">
        <g id="Artboard">
            <g id="earth_enterprise_32dp" transform="translate(3.000000, 3.000000)">
                <g id="offers_32dp">
                    <g id="Page-1">
                        <g id="offers">
                            <path d="M20.721,23.241 C18.533,25.5555 15.4355,27 12.001,27 C10.289,27 8.6605,26.6405 7.1885,25.995 C7.0215,25.654 6.3275,24.1005 7.28,23.662 C8.6905,23.01 17.169,25.631 20.721,23.241 L20.721,23.241 Z M0.0855,13.5665 C0.03,14.037 0,14.5145 0,15 C0,16.317 0.213,17.583 0.6045,18.7685 C1.4555,15.9635 5.7195,19.344 12.5055,20.658 C20.6075,22.2265 22.3695,20.858 22.721,20.397 C23.19,19.467 23.542,18.468 23.757,17.418 C23.4985,18.1855 22.044,21.0135 12.8045,15.536 C5.0175,10.92 1.249,10.2355 0.0855,13.5665 Z M8.138,6.8575 C15.2105,8.646 21.8015,18.7915 23.9955,14.6785 C23.969,13.647 23.811,12.6475 23.5395,11.696 C23.3665,12.109 23.001,12.603 22.2705,12.343 C20.6505,11.766 17.1515,7.4295 14.283,5.6555 C11.414,3.8825 8.7105,3.2905 5.9755,4.6205 C4.3505,5.566 2.9665,6.882 1.9425,8.453 C3.127,7.031 5.0415,6.074 8.138,6.8575 L8.138,6.8575 Z" id="Shape" fill="#4285F4"></path>
                            <path d="M5.9755,4.62 C7.7465,3.5905 9.804,3 12.001,3 C17.482,3 22.1055,6.6755 23.5395,11.696 C23.3665,12.109 23.001,12.603 22.2705,12.343 C20.6505,11.766 17.1515,7.4295 14.283,5.6555 C11.414,3.8825 8.711,3.29 5.9755,4.62 L5.9755,4.62 Z M12.5055,20.658 C5.72,19.344 1.4555,15.963 0.6045,18.7685 C1.676,22.0085 4.0895,24.6365 7.1885,25.995 C7.0215,25.654 6.3275,24.1005 7.28,23.662 C8.6905,23.0095 17.169,25.631 20.7215,23.241 C21.518,22.399 22.194,21.442 22.721,20.397 C22.369,20.8585 20.6075,22.2265 12.5055,20.658 L12.5055,20.658 Z M23.9955,14.678 C21.8015,18.7915 15.2105,8.646 8.138,6.857 C5.0415,6.074 3.127,7.031 1.942,8.452 C0.9605,9.957 0.308,11.695 0.085,13.566 C1.2485,10.2355 5.017,10.9195 12.804,15.5355 C22.0435,21.013 23.498,18.185 23.756,17.4175 C23.9155,16.6365 23.999,15.8275 23.999,14.9995 C24,14.892 23.9985,14.7855 23.9955,14.678 L23.9955,14.678 Z" id="Shape" fill="#F0F0F0"></path>
                            <path d="M1.61553236,21.0175053 C1.61563196,21.0139783 1.61545692,21.011798 1.615,21.011 C3.3825,22.0345 5.4335,22.6215 7.623,22.6215 C11.174,22.6215 14.361,21.073 16.5575,18.62 L14.5,17 L14.5035,8.512 C14.5035,8.512 15.348,3.457 15.9455,3.665 C15.948074,3.66589515 15.9517339,3.6667376 15.9564592,3.6675282 C20.6399588,5.30251725 24,9.7588688 24,15 C24,21.627417 18.627417,27 12,27 C7.56553555,27 3.69286895,24.5946577 1.61553236,21.0175053 L1.61553236,21.0175053 Z" id="Combined-Shape" fill-opacity="0.1" fill="#000000"></path>
                            <path d="M16.906,6.259 C16.906,4.477 18.2915,3.0315 20,3.0315 C21.7085,3.0315 23.0935,4.477 23.0935,6.259 L23.0935,8 L26,8 L26,7.959 L26,6.259 C26,2.8025 23.3135,0 19.9995,0 C16.686,0 14,2.802 14,6.259 L14,7.959 L14,8 L16.906,8 L16.906,6.259 L16.906,6.259 Z" id="Shape" fill="#737373"></path>
                            <path d="M17.741,17.3815 L22.445,17.3815 L24.5925,17.3815 C25.37,17.3815 25.9995,16.763 25.9995,16 L25.9995,8 L23.235,8 L16.951,8 L14,8 L14,16 C14,16.7625 14.6295,17.3815 15.406,17.3815 L17.741,17.3815 Z" id="Shape" fill="#4D4D4D"></path>
                            <path d="M15.5,10 L15.5,11.5 L24.5,11.5 L24.5,10 L15.5,10 Z M15.5,13 L15.5,14.5 L24.5,14.5 L24.5,13 L15.5,13 Z" id="Combined-Shape" fill="#999999"></path>
                        </g>
                    </g>
                </g>
            </g>
        </g>
    </g>
</svg>