<svg viewBox="0 0 32 32" xmlns="http://www.w3.org/2000/svg"><g fill="none" fill-rule="evenodd"><path d="M26.18 25.621a13.967 13.967 0 0 1-10.177 4.385c-1.998 0-3.896-.42-5.616-1.173-.194-.398-1.004-2.212.107-2.724 1.648-.759 11.54 2.3 15.687-.488zm-9.237-8.992c-9.087-5.387-13.486-6.185-14.842-2.298a14.026 14.026 0 0 0 .605 6.07c.993-3.274 5.969.67 13.886 2.204 9.455 1.83 11.511.234 11.92-.305.547-1.085.959-2.25 1.21-3.475-.303.896-1.997 4.195-12.779-2.196zM11.497 6.503c8.253 2.086 15.944 13.925 18.505 9.126a14.072 14.072 0 0 0-.532-3.48c-.203.481-.63 1.058-1.482.755-1.89-.676-5.971-5.736-9.321-7.805-3.347-2.07-6.502-2.76-9.693-1.208a14.09 14.09 0 0 0-4.705 4.472c1.38-1.66 3.615-2.775 7.228-1.86z" fill="#4285F4"/><path d="M14.157 9.08l-11.33 2.17c-.144.398-.728 3.083-.728 3.083l6.223 6.224-3.418 3.981A13.977 13.977 0 0 0 16 30c7.732 0 14-6.268 14-14S23.732 2 16 2c-2.563 0-4.964.688-7.03 1.89l5.187 5.19z" fill-opacity=".1" fill="#000"/><path d="M16.003 2c6.398 0 11.791 4.29 13.467 10.148-.203.482-.63 1.058-1.482.755-1.89-.675-5.972-5.735-9.322-7.805C15.32 3.03 12.164 2.34 8.973 3.893A13.924 13.924 0 0 1 16.003 2zm.59 20.605C8.674 21.072 3.7 17.128 2.705 20.4a14.037 14.037 0 0 0 7.682 8.433c-.194-.398-1.004-2.212.107-2.724 1.647-.759 11.54 2.3 15.686-.488a14.072 14.072 0 0 0 2.332-3.32c-.41.539-2.466 2.135-11.92.304zM11.496 6.502c-3.614-.914-5.849.202-7.23 1.86A13.9 13.9 0 0 0 2.1 14.333c1.356-3.89 5.755-3.09 14.842 2.296 10.781 6.39 12.476 3.092 12.779 2.196a14.058 14.058 0 0 0 .28-3.197c-2.562 4.8-10.252-7.04-18.505-9.126z" fill="#EEE"/></g></svg>