<svg viewBox="0 0 32 32" xmlns="http://www.w3.org/2000/svg"><g fill="none" fill-rule="evenodd"><path d="M12.084 3.955c6.747-2.456 14.207 1.023 16.662 7.77L16.53 16.17 12.084 3.955z" fill="#FDC626"/><path d="M12.084 3.955c-6.747 2.456-10.225 9.916-7.77 16.662l12.216-4.446-4.446-12.216z" fill="#3F51B5"/><path fill="#EA4335" d="M16.917 24.544l4.699-1.71 1.71 4.698-4.699 1.71z"/><path fill="#E0E0E0" d="M11.362 18.052l-1.41.513 6.21 3.416-9.968-2.048-1.88.684 14.952 3.072 9.48-11.964-1.88.684-6.32 7.976 2.562-6.608-1.41.513-3.018 7.788z"/><path d="M15.634 4.236l5.595 10.225 7.518-2.737a13.107 13.107 0 0 0-.778-1.736L15.634 4.236z" fill-opacity=".1" fill="#BF360C"/><path d="M12.084 3.955c-3.633 1.322-4.587 7.863-2.132 14.61l13.156-4.788C20.652 7.03 15.717 2.633 12.084 3.955z" fill="#03A9F4"/></g></svg>