<svg viewBox="0 0 32 32" xmlns="http://www.w3.org/2000/svg"><g fill="none" fill-rule="evenodd"><path d="M15 13a5 5 0 0 1 7.103-4.538 2 2 0 1 0 1.794-3.574A9 9 0 0 0 11 13v14.5c0 .276.22.5.49.5h3.02c.275 0 .49-.223.49-.5V13z" fill="#34A853"/><path fill="#FBBC05" d="M21 19h4v9h-4z"/><rect fill="#00BCD4" x="7" y="14" width="18" height="4" rx="2"/><path d="M24.996 15.875l-.935-.936-2.122 2.122.94.939h.126a1.997 1.997 0 0 0 1.991-2.125z" fill-opacity=".1" fill="#000"/><path d="M24.06 17.06a1.5 1.5 0 1 0-2.12-2.12 1.5 1.5 0 0 0 2.12 2.12z" fill="#EEE"/></g></svg>