<svg viewBox="0 0 32 32" xmlns="http://www.w3.org/2000/svg"><g fill="none" fill-rule="evenodd"><rect fill="#4285F4" x="4" y="4" width="24" height="24" rx="2"/><path d="M9.537 12.29a1.845 1.845 0 0 0-.328.116c-.298.142-.486.482-.576.82v.118h-.02v.176c-.004 0 .001.26 0 .351-.002.116-.01.195-.02.234-.013.047.018.034-.062.06-.078-.016-.18.03-.226.038-.127-.009-.234.04-.329.059-.242-.006-.012.02-.226.02v.253h.842V18.5h.432v-3.965h1.787V18.5h.432v-4.316h-2.22v-.664h.021c.003-.52.262-.812.72-.899h.657v.02c.215.024.411.039.575.117.006.003.117.07.124.058.045-.087.048-.176.082-.273.01-.028.068-.065.04-.078a2.534 2.534 0 0 0-.574-.176h-.124v-.02l-.164-.019h-.617v.02c-.211 0-.143 0-.226.02zm14.408 2h-.146v-.02h-.21v-.02h-.459v.02c-.602.025-.98.434-1.191.836v-.199h-.021v-.398h-.021v-.18H21.5v4.421h.46v-2.628h.02v-.16h.022a1.405 1.405 0 0 1 1.065-1.294h.126v-.02h.23v.02h.208v.02c.352.034.266.11.335-.219.02-.14.075-.134-.021-.18zM12.5 12.25v6.172c.326.028.287.058.32-.097 0-.039.049-.435.079-.524.008-.022.03.038.04.058.049.096.182.178.26.253.183.178.446.298.737.369h.12v.019h.638v-.02c.865-.04 1.313-.722 1.496-1.436v-.116h.02v-.117h.02v-.194h.02v-.699h-.02v-.213h-.02v-.116h-.02c-.045-.844-.624-1.384-1.396-1.534h-.18v-.02h-.458v.02h-.16v.02c-.47.038-.904.341-1.077.679v-.408h.02V12.25H12.5zm5.857 2.02h.165v-.02h.433v.02c.899.029 1.348.689 1.504 1.428v.137h.02v.254h.021v.49h-3.276v.234h.02v.176h.021c.038.712.535 1.198 1.175 1.35h.123v.02h.206v.02h.247v-.02h.289v-.02c.412.052.664-.235 1.01-.235 0 .13.013.262 0 .392-.001.007-.64.203-.701.215h-.124v.02h-.185v.019H18.5v-.02h-.123v-.02c-.909-.053-1.424-.793-1.587-1.564v-.137h-.02v-.235h-.021v-.47h.02v-.234h.021c.021-.33.234-1.04.474-1.155.213-.334.626-.557 1.092-.645zM13 16.05h.02v-.216h.018v-.137h.02c.026-.655.416-1.063.98-1.178h.116v-.02h.423v.02c.686.026 1.015.59 1.135 1.197v.118h.019v.177h.019v.687h-.02v.157h-.018c-.032.723-.36 1.09-.962 1.244-.038 0-.577.007-.577 0-.706-.02-1.013-.406-1.135-1.028 0-.046 0 0-.019-.177C13 16.758 13 16.811 13 16.68v-.628zm4.29-.228v.113h-.02c.034.262-.02.04-.02.189H20v-.151h-.02v-.189h-.02c-.034-.59-.433-1.046-.999-1.151-.155.004-.193-.022-.265 0h-.203v.019c-.4.032-.79.273-.937.547a2.678 2.678 0 0 0-.265.623z" fill="#F5F5F5"/></g></svg>