<svg viewBox="0 0 32 32" xmlns="http://www.w3.org/2000/svg"><g fill="none" fill-rule="evenodd"><path d="M24 12H4V6a2 2 0 0 1 2-2h20c.645 0 1.218.306 1.584.78L24 12z" fill="#EEE"/><path fill="#E0E0E0" d="M4 12h20v8H4z"/><path fill="#BDBDBD" d="M4 20h4l-4 5.25z"/><path d="M27.414 4.586L16 16h-4.5L4 23.5V26c0 .6.266 1.14.686 1.507L12 22.25l16-2V6c0-.552-.224-1.052-.586-1.414z" fill="#34A853"/><path d="M28 15l-7 5h-9l-7.414 7.414c.362.362.862.586 1.414.586h20a2 2 0 0 0 2-2V15z" fill="#9CCC65"/></g></svg>