<svg viewBox="0 0 32 32" xmlns="http://www.w3.org/2000/svg"><g fill="none" fill-rule="evenodd"><path d="M13.527 6.699A7.5 7.5 0 0 0 2.92 17.306l12.37 12.37c.196.195.453.294.71.294l3-11.47-3-9.328-2.473-2.473z" fill="#EA4335"/><path d="M16 29.97c.256 0 .513-.099.71-.295l12.37-12.37a7.501 7.501 0 0 0 .001-10.608 7.502 7.502 0 0 0-10.61.003L16 9.172V29.97z" fill="#880E4F"/><path d="M31.266 12.426l-6.58-6.58-6.186 4.907-2.5 3.885V29.97c.256 0 .513-.099.71-.295l12.37-12.37a7.476 7.476 0 0 0 2.186-4.88z" fill-opacity=".1" fill="#000"/><path d="M16 29.97c.185 0 .37-.099.51-.295l8.907-12.37c2.11-2.93 2.11-7.68.002-10.608-2.11-2.93-5.53-2.928-7.64.003L16 9.172V29.97z" fill="#C51162"/><path d="M26.966 11.156l-6.02-6.02L16 19.5v10.47c.185 0 .37-.099.51-.295l8.907-12.37c1.21-1.68 1.726-3.959 1.549-6.149z" fill-opacity=".1" fill="#000"/><path d="M16.325 29.675l5.668-12.37c1.342-2.93 1.343-7.68 0-10.608-1.342-2.93-3.518-2.928-4.86.003L16 9.172V29.97c.117 0 .235-.099.325-.295z" fill="#FB8C00"/></g></svg>