<svg viewBox="0 0 48 48" xmlns="http://www.w3.org/2000/svg"><g fill="none" fill-rule="evenodd"><path d="M28 2H11C9.35 2 8 3.35 8 5v38c0 1.65 1.35 3 3 3h26c1.65 0 3-1.35 3-3V14l-7-5-5-7z" fill="#673AB7"/><path d="M21 36h11v-2H21v2zm0-12v2h11v-2H21zm-2.5 1a1.5 1.5 0 1 1-3.001-.001A1.5 1.5 0 0 1 18.5 25zm0 5a1.5 1.5 0 1 1-3.001-.001A1.5 1.5 0 0 1 18.5 30zm0 5a1.5 1.5 0 1 1-3.001-.001A1.5 1.5 0 0 1 18.5 35zm2.5-4h11v-2H21v2z" fill="#F5F5F5"/><path fill-opacity=".1" fill="#000" d="M28.877 13.123L40 24.242V14z"/><path d="M28 2v9a3 3 0 0 0 3 3h9L28 2z" fill="#B39DDB"/></g></svg>