<svg viewBox="0 0 32 32" xmlns="http://www.w3.org/2000/svg" xmlns:xlink="http://www.w3.org/1999/xlink"><defs><rect id="a" x="21.25" y="22.75" width="4.5" height="4.5" rx="1.25"/><mask id="b" x="-1" y="-1" width="6.5" height="6.5"><path fill="#fff" d="M20.25 21.75h6.5v6.5h-6.5z"/><use xlink:href="#a"/></mask></defs><g fill="none" fill-rule="evenodd"><path d="M2 8v19.005C2 28.107 2.9 29 3.991 29H28.01c1.1 0 1.991-.902 1.991-1.995V8h-8V6l-2-2h-8l-2 2v2H2zm10-1c0-.552.453-1 .997-1h6.006c.55 0 .997.444.997 1v1h-8V7z" fill="#EEE"/><path fill="#4285F4" d="M10 11h13v9.473H10z"/><path d="M16.5 12.875a.375.375 0 1 0 0-.75.375.375 0 0 0 0 .75zM14.25 11h4.5v.5h-4.5V11z" fill="#3B4AAF"/><path fill="#F5F5F5" d="M11 13h11v16H11z"/><path d="M15 17.25c0-.69-2.239-1.25-5-1.25s-5 .56-5 1.25c0 .012 0 .023.002.035V29H15V17.25z" fill="#FF5722"/><path fill="#F5F5F5" d="M6 18h8v11H6z"/><ellipse fill="#D84315" cx="10.122" cy="17.25" rx=".366" ry=".375"/><path d="M25.56 29l.19-1.5h-4.5l.19 1.5h4.12zm-3.841-10.253a.295.295 0 0 1 .283-.247h2.996c.14 0 .266.114.283.247l.469 3.7h-4.5l.469-3.7z" fill="#FBBC05"/><use fill="#F5F5F5" xlink:href="#a"/><use stroke="#F29400" mask="url(#b)" stroke-width="2" xlink:href="#a"/><path fill="#F29400" d="M26.5 24.25h.75v1.5h-.75z"/></g></svg>