<svg viewBox="0 0 32 32" xmlns="http://www.w3.org/2000/svg"><g fill="none" fill-rule="evenodd"><path fill="#EFEFEF" d="M27.852 6H4l.926 20h22z"/><path fill-opacity=".05" fill="#000" d="M16 19L5 26V11z"/><path d="M16 14.556L4.074 6A2.074 2.074 0 0 0 2 8.074v15.922C2 25.103 2.9 26 4.001 26H5V11.13L16 19l11-7.87V26h.999A1.997 1.997 0 0 0 30 23.996V8.074A2.074 2.074 0 0 0 27.926 6L16 14.556z" fill="#EA4335"/><path d="M2 9l16.89 17.034h9.111c1.104 0 1.999-.89 1.999-2V9.03l-14 9.967L2 9z" fill-opacity=".1" fill="#000"/></g></svg>