<svg viewBox="0 0 32 32" xmlns="http://www.w3.org/2000/svg"><g fill="none" fill-rule="evenodd"><path d="M18.79 8.086l4.019-5.348a.615.615 0 0 0-.141-.865l.046.033a.745.745 0 0 0-.948.088L16.059 8a29.993 29.993 0 0 0-.118 0l-5.707-6.006a.745.745 0 0 0-.948-.088l.046-.033a.615.615 0 0 0-.14.865l4.012 5.34c-4.597.225-10.205.852-10.205.852-.552.06-.999.56-.999 1.106v17.862c0 .552.44 1.049.992 1.11 0 0 8.445.992 13.008.992 4.398 0 13.011-.993 13.011-.993.546-.061.989-.562.989-1.109V10.036c0-.552-.452-1.046-1-1.102 0 0-5.755-.616-10.21-.848z" fill="#4D4D4D"/><rect fill="#FBFBFB" x="4" y="10" width="24" height="18" rx=".5"/><path d="M28 14.293l-2.146-2.147-5 2-2-2-5 2-2-2-5.708 3.708 2 2-2 3 2 2-2 3L8.293 28h19.206a.503.503 0 0 0 .501-.5V14.293z" fill-opacity=".05" fill="#000"/><path d="M20.491 17a.488.488 0 0 0-.491.49v3.02c0 .27.228.49.491.49h5.018a.488.488 0 0 0 .491-.49v-3.02c0-.27-.228-.49-.491-.49h-5.018zm-14 5a.488.488 0 0 0-.491.49v3.02c0 .27.228.49.491.49h5.018a.488.488 0 0 0 .491-.49v-3.02c0-.27-.228-.49-.491-.49H6.491z" fill="#EA4335"/><path d="M20.491 12a.488.488 0 0 0-.491.49v3.02c0 .27.228.49.491.49h5.018a.488.488 0 0 0 .491-.49v-3.02c0-.27-.228-.49-.491-.49h-5.018zm-7 5a.488.488 0 0 0-.491.49v3.02c0 .27.228.49.491.49h5.018a.488.488 0 0 0 .491-.49v-3.02c0-.27-.228-.49-.491-.49h-5.018z" fill="#4285F4"/><path d="M13.491 12a.488.488 0 0 0-.491.49v3.02c0 .27.228.49.491.49h5.018a.488.488 0 0 0 .491-.49v-3.02c0-.27-.228-.49-.491-.49h-5.018zm-7 5a.488.488 0 0 0-.491.49v3.02c0 .27.228.49.491.49h5.018a.488.488 0 0 0 .491-.49v-3.02c0-.27-.228-.49-.491-.49H6.491zm14 5a.488.488 0 0 0-.491.49v3.02c0 .27.228.49.491.49h5.018a.488.488 0 0 0 .491-.49v-3.02c0-.27-.228-.49-.491-.49h-5.018z" fill="#34A853"/><path d="M6.491 12a.488.488 0 0 0-.491.49v3.02c0 .27.228.49.491.49h5.018a.488.488 0 0 0 .491-.49v-3.02c0-.27-.228-.49-.491-.49H6.491zm7 10a.488.488 0 0 0-.491.49v3.02c0 .27.228.49.491.49h5.018a.488.488 0 0 0 .491-.49v-3.02c0-.27-.228-.49-.491-.49h-5.018z" fill="#FBBC05"/></g></svg>