<svg viewBox="0 0 48 48" xmlns="http://www.w3.org/2000/svg"><g fill="none" fill-rule="evenodd"><circle fill="#EA4335" cx="24" cy="24.013" r="21.96"/><path d="M25.794 45.9L13.929 34.034l-2.765-2.765a9.908 9.908 0 0 1-3.135-7.256 9.91 9.91 0 0 1 1.059-4.482 9.985 9.985 0 0 1 8.923-5.5c2.695 0 4.941.989 6.677 2.605h.01l6.29 6.27 2.994-.011v-4.872h2.994l8.804 8.814c-1.311 10.21-9.635 18.226-19.986 19.063z" fill-opacity=".1" fill="#000"/><path d="M18 30a6 6 0 1 1 3.124-11.124L24 16a9.956 9.956 0 0 0-6-2c-5.523 0-10 4.477-10 10s4.477 10 10 10 10-4.477 10-10c0-.685-.069-1.354-.2-2H18v4h5.659A6.002 6.002 0 0 1 18 30zm22.969-7.984h-3.993v-3.993h-2.994v3.994h-3.993v2.994h3.993v3.993h2.994V25.01h3.993v-2.995z" fill="#F5F5F5"/></g></svg>