<svg viewBox="0 0 48 48" xmlns="http://www.w3.org/2000/svg"><g fill="none" fill-rule="evenodd"><path d="M42 4H6C4.35 4 3 5.35 3 7v37.5a.501.501 0 0 0 .805.395L14 37h28c1.65 0 3-1.35 3-3V7c0-1.65-1.35-3-3-3z" fill="#E2E2E2"/><path d="M45 10.295l-3.148-3.147L6.148 33.852l5.2 5.202L14 37h17l10.195 7.895A.5.5 0 0 0 42 44.5V37c1.65 0 3-1.35 3-3V10.295z" fill-opacity=".1" fill="#000"/><path d="M41.5 7h-35c-.275 0-.5.225-.5.5v26c0 .275.225.5.5.5h20.628l14.067 10.895A.5.5 0 0 0 42 44.5v-37c0-.275-.225-.5-.5-.5z" fill="#4285F4"/><path d="M30 20a2.001 2.001 0 1 0-.002-4.002A2.001 2.001 0 0 0 30 20zm0 2c-2.367 0-5 1.17-5 2.75V27h10v-2.25c0-1.58-2.633-2.75-5-2.75z" fill="#A4BCF8"/><path d="M20 34l-7-7 11.758-2-6.88-6.878 4.244-4.245L42 33.75V44.5a.501.501 0 0 1-.805.395L27.128 34H20z" fill-opacity=".03" fill="#000"/><path d="M20 19c1.655 0 3-1.345 3-3s-1.345-3-3-3-3 1.345-3 3 1.345 3 3 3zm0 2c-3.375 0-7 1.79-7 4v2h14v-2c0-2.21-3.625-4-7-4z" fill="#F5F5F5"/></g></svg>