<svg viewBox="0 0 32 32" xmlns="http://www.w3.org/2000/svg"><g fill="none" fill-rule="evenodd"><path d="M11 23h16.003A1.994 1.994 0 0 0 29 21.01V4.99C29 3.899 28.106 3 27.003 3H4.997A1.994 1.994 0 0 0 3 4.99V29l8-6z" fill="#E2E2E2"/><path d="M29 7.59L26.71 5.3 5.3 20.71l3.751 3.751L11 23h16.003c1.101 0 1.996-.89 1.997-1.99V7.59z" fill-opacity=".07" fill="#000"/><path d="M27 20.998V6.001A1 1 0 0 0 25.998 5H6.002A.996.996 0 0 0 5 6v14a1 1 0 0 0 1.002 1h10.331L27 29v-8.002z" fill="#4285F4"/><path d="M19.5 13.5a1.5 1.5 0 1 0 0-3 1.5 1.5 0 0 0 0 3zm0 1c-1 0-3 .5-3 1.5v1h6v-1c0-1-2.001-1.5-3-1.5z" fill="#A0C3FF"/><path fill-opacity=".03" fill="#000" d="M27 20.68L14.91 8.59l-2.82 2.82L15.68 15 9 17l3.94 4h3.393L27 29v-8.32z"/><path d="M13.5 13.5c-1.5 0-4.5.701-4.5 2.1V17h9v-1.4c0-1.399-3.001-2.1-4.5-2.1zm1.414-2.086a1.991 1.991 0 0 0-.004-2.824 1.991 1.991 0 0 0-2.824-.004 1.991 1.991 0 0 0 .004 2.824 1.991 1.991 0 0 0 2.824.004z" fill="#F7F7F7"/></g></svg>