<svg viewBox="0 0 32 32" xmlns="http://www.w3.org/2000/svg"><g fill="none" fill-rule="evenodd"><path d="M15.983 26.312c-7.173 0-12.988-5.174-12.988-12.348S8.81.974 15.983.974c7.173 0 12.988 5.816 12.988 12.99s-6.881 14.195-12.988 16.71v-4.362z" fill="#34A853"/><path d="M21.388 27.388L10 16l5-5 3 3 4-3 6.452 6.452c-1.108 3.796-3.869 7.34-7.064 9.936z" fill-opacity=".05" fill="#000"/><path d="M13 16v3c1.095-.017 1.978-1.354 1.978-3H15v-5h-5v5h3zm7 0v3c1.095-.017 1.978-1.354 1.978-3H22v-5h-5v5h3z" fill="#F5F5F5"/></g></svg>