<svg viewBox="0 0 32 32" xmlns="http://www.w3.org/2000/svg"><g fill="none" fill-rule="evenodd"><path d="M25.9 25.9c-5.468 5.467-14.332 5.467-19.8 0L12 11l13.9-4.9c5.467 5.468 5.467 14.332 0 19.8z" fill="#8BC34A"/><path d="M6.1 25.9C.634 20.431.634 11.567 6.1 6.1 11.569.634 20.433.634 25.9 6.1L6.1 25.9z" fill="#7CB342"/><path d="M29.509 19.689L23.41 13.59l-7.41.59-1.59-1.59L14 13l-4-4-2 13 8 8c6.455 0 11.89-4.369 13.509-10.311z" fill-opacity=".07" fill="#000"/><path d="M13 16a2 2 0 1 0 0-4 2 2 0 0 0 0 4zm9 3H10v3H8V9h2v8h6v-4h6.002c1.103 0 1.998.896 1.998 1.997V22h-2v-3z" fill="#EFEFEF"/></g></svg>