<svg viewBox="0 0 32 32" xmlns="http://www.w3.org/2000/svg"><g fill="none" fill-rule="evenodd"><path fill="#3E6EDC" d="M16 9L4 14l12 11 12-11z"/><path d="M16.595 4.446c-.329-.246-.868-.241-1.19 0l-10.81 8.108C4.266 12.8 4 13.339 4 13.748V14h24v-.252c0-.413-.273-.953-.595-1.194l-10.81-8.108z" fill="#335CCC"/><path d="M20 21l-4-4 7.408-7.408 3.997 2.998c.322.242.595.781.595 1.194V16l-8 5z" fill-opacity=".15" fill="#000"/><path d="M15.75 28H26L4 14v12.499C4 27.328 4.667 28 5.501 28h10.25z" fill="#25B8F9"/><path d="M16.25 28H6l22-14v12.499c0 .834-.672 1.501-1.501 1.501h-10.25z" fill="#80D4FC"/><path fill="#EEE" d="M13 11l-1.5 1.5L16 17l9.5-9.5L24 6l-8 8z"/></g></svg>