<svg viewBox="0 0 32 32" xmlns="http://www.w3.org/2000/svg"><g fill="none" fill-rule="evenodd"><path d="M4 6.005C4 4.898 4.897 4 6.005 4h19.99A2 2 0 0 1 28 6v15l-5 2-2 5H6c-1.105 0-2-.897-2-2.005V6.005z" fill="#FBBC05"/><path d="M12.997 23l.5-4.12-1.565-1.565S8.997 13 12.497 9.5s7.565-.315 7.565-.315l7.935 7.935V21l-5 2-2 5h-3l-5-5z" fill-opacity=".1" fill="#BF360C"/><path d="M21 23.006c0-1.108.887-2.006 2.006-2.006H28l-7 7v-4.994z" fill="#FBDC7D"/><path d="M19 18.156a5.75 5.75 0 1 0-6 0V23h1v1h4v-1h1v-4.844zm-5 .165v-.761a4.75 4.75 0 1 1 4 0V20h-4v-1.679zM14 21h4v1h-4v-1z" fill="#F5F5F5"/></g></svg>