<?xml version="1.0" encoding="UTF-8"?>
<svg width="32px" height="32px" viewBox="0 0 32 32" version="1.1" xmlns="http://www.w3.org/2000/svg" xmlns:xlink="http://www.w3.org/1999/xlink">
    <!-- Generator: Sketch 41.2 (35397) - http://www.bohemiancoding.com/sketch -->
    <title>maps_engine_32dp</title>
    <desc>Created with Sketch.</desc>
    <defs></defs>
    <g id="Page-1" stroke="none" stroke-width="1" fill="none" fill-rule="evenodd">
        <g id="maps_engine">
            <path d="M23.5839434,19.5645 C23.9543019,19.133 24.2981698,18.665 24.5956792,18.1585 L24.5956792,18.1555 L24.5956792,18.1555 C24.8931887,17.6475 25.1321132,17.1195 25.3262075,16.586 L28.2228491,16.2685 L28.9910755,15.5145 L28.9910755,10.9835 L28.2269245,10.2275 L25.3343585,9.909 C24.9344528,8.831 24.3521698,7.824 23.587,6.9295 L24.7602264,4.292 L24.4795283,3.2625 L22.503434,2.1325 L20.5212264,1.0035 L19.479434,1.277 L17.7509245,3.5995 C16.5858491,3.3925 15.4116038,3.3945 14.2653774,3.5925 L12.5419623,1.274 L11.4991509,0.9995 L7.52709434,3.264 L7.24843396,4.296 L8.4145283,6.9315 C8.04315094,7.364 7.70132075,7.833 7.40483019,8.3405 C7.40483019,8.3405 7.40483019,8.3405 7.40483019,8.3415 L7.40483019,8.3415 C7.10732075,8.8505 6.86635849,9.3785 6.67328302,9.91 L3.77664151,10.2295 L3.01045283,10.9825 L3.00841509,15.5135 L3.7705283,16.2695 L6.66513208,16.588 C7.06198113,17.666 7.64833962,18.671 8.41045283,19.5685 L7.23926415,22.205 L7.51996226,23.2345 L9.49911321,24.3645 L11.4752075,25.4935 L12.5200566,25.219 L14.2465283,22.8985 C15.4116038,23.1035 16.5889057,23.1035 17.7320755,22.9055 L19.4565094,25.222 L20.5003396,25.4995 L24.4723962,23.235 L24.7510566,22.201 L23.5839434,19.5645 L23.5839434,19.5645 Z" id="Shape" fill="#E0E0E0"></path>
            <path d="M24.4723962,23.2355 L24.7510566,22.2015 L23.5839434,19.565 C23.9543019,19.1335 24.2981698,18.6655 24.5956792,18.159 L24.5956792,18.156 C24.8931887,17.648 25.1321132,17.12 25.3262075,16.5865 L28.2228491,16.269 L21.6180377,8.511 L16.5226792,22.17 L17.0270189,22.997 C17.2628868,22.9735 17.4987547,22.946 17.7325849,22.906 L19.4570189,25.2225 L20.5008491,25.5 L24.4723962,23.2355 L24.4723962,23.2355 Z" id="Shape" fill-opacity="0.1" fill="#000000"></path>
            <path d="M15.7432453,31 C15.6118113,29.5255 15.3056415,28.173 14.9464906,26.8995 C14.584283,25.62 14.1843774,24.3975 13.6846226,23.249 C13.1889434,22.1085 12.559283,21.09 11.8766415,20.125 C11.1878868,19.1485 10.4807925,18.213 9.87354717,17.1895 C9.26069811,16.1555 8.70337736,15.0295 8.62390566,13.5275 C8.53933962,11.925 8.95911321,10.6475 9.58928302,9.6105 C10.8200755,7.592 12.7615283,6.13 15.922566,6 L16.0789623,6 C19.2410189,6.13 21.1824717,7.592 22.4132642,9.6105 C23.0419057,10.6475 23.4632075,11.925 23.3766038,13.5275 C23.2991698,15.0295 22.7418491,16.1555 22.129,17.1895 C21.5212453,18.213 20.8136415,19.1485 20.1223396,20.125 C19.4376604,21.09 18.8141132,22.1085 18.3143585,23.249 C17.8176604,24.3975 17.4177547,25.62 17.056566,26.8995 C16.6974151,28.173 16.389717,29.5255 16.2587925,31 L15.7432453,31 L15.7432453,31 Z" id="Shape" fill="#EA4335"></path>
            <ellipse id="Oval" fill="#1A1A1A" opacity="0.6" cx="16" cy="13.25" rx="2.29245283" ry="2.25"></ellipse>
        </g>
    </g>
</svg>