<svg viewBox="0 0 32 32" xmlns="http://www.w3.org/2000/svg"><g fill="none" fill-rule="evenodd"><path d="M4 26.781L27 6H6c-1.098 0-2 .896-2 2v18.781z" fill="#34A853"/><path fill="#4285F4" d="M6.424 29L15.5 17.54 24.576 29H6.424z"/><path fill="#E0E0E0" d="M15.5 17.54L27 26.78V8z"/><path fill-opacity=".1" fill="#000" d="M23.2 23l1.8 3 2 .78V10.92z"/><path d="M14.34 18.71l2.321-2.34L27 26.78V27c0 1.104-.902 2-2 2h-.45L14.34 18.71z" fill="#F5F5F5"/><path d="M4 26.781V27c0 1.1.896 2 2 2h.45L27 8.295 24.63 6 4 26.781z" fill="#FDC626"/><path d="M23.406 23.01a.349.349 0 0 1-.348-.315C22.38 15.65 17.5 13.166 17.5 8.666a5.906 5.906 0 0 1 5.906-5.906 5.906 5.906 0 0 1 5.907 5.906c0 4.5-4.88 6.984-5.558 14.029a.349.349 0 0 1-.349.315z" fill="#EA4335"/><circle fill="#972722" cx="23.406" cy="8.666" r="1.969"/><path d="M12.459 11a3 3 0 1 1-1.102-1.857l-.715.715A2 2 0 1 0 11.437 12H9.5v-1h2.959z" fill="#F5F5F5"/></g></svg>