<svg viewBox="0 0 32 32" xmlns="http://www.w3.org/2000/svg"><g fill="none" fill-rule="evenodd"><path d="M15.983 26.312c-7.173 0-12.988-5.174-12.988-12.348S8.81.974 15.983.974c7.173 0 12.988 5.816 12.988 12.99s-6.881 14.195-12.988 16.71v-4.362z" fill="#009688"/><path d="M15.983 26.397l2.825 2.825c4.946-3.04 9.638-8.555 10.122-14.292L24 10l-.293 2.293-3-3-12.414 9.414 7.605 7.605h.085v.085z" fill-opacity=".1" fill="#000"/><path d="M8 14v4a1 1 0 0 0 .999 1H20a.999.999 0 0 0 1-1.01V15l3 3v-4l-11-2-5 2z" fill="#F5F5F5"/><path d="M8 11.998V9.995c0-.54.447-.995.999-.995H20c.552 0 .999.452.999 1.01V13l3-3v4H8v-2.002z" fill="#E0E0E0"/></g></svg>