<svg viewBox="0 0 32 32" xmlns="http://www.w3.org/2000/svg"><g fill="none" fill-rule="evenodd"><path d="M4 11l12-1 12 1v15.005A2 2 0 0 1 25.995 28H6.005A2 2 0 0 1 4 26.005V11z" fill="#4285F4"/><path d="M4 5.987C4 4.89 4.897 4 6.005 4h19.99C27.102 4 28 4.887 28 5.987V11H4V5.987zM14.5 7h-2.506A.994.994 0 0 0 11 8c0 .552.456 1 .995 1h8.01c.55 0 .995-.444.995-1 0-.552-.458-1-.994-1H17.5c0-.828-.666-1.5-1.5-1.5-.828 0-1.5.68-1.5 1.496V7z" fill="#3F51B5"/><path d="M28 25l-7.5-7.5-6 6L19 28h6.995A2 2 0 0 0 28 26.005V25z" fill-opacity=".1" fill="#000"/><path d="M10 13.898c0-.496.394-.898.898-.898h4.651c.25 0 .592.141.768.317l5.798 5.798c.35.35.346.924-.007 1.277l-4.716 4.716a.908.908 0 0 1-1.277.007l-5.798-5.798a1.24 1.24 0 0 1-.317-.768v-4.65zM12.25 16a.75.75 0 1 0 0-1.5.75.75 0 0 0 0 1.5z" fill="#F5F5F5"/></g></svg>