<svg viewBox="0 0 32 32" xmlns="http://www.w3.org/2000/svg"><g fill="none" fill-rule="evenodd"><rect fill="#4285F4" x="4" y="8" width="24" height="20" rx="2"/><path d="M2.5 14.66L28 6v19.995A2.005 2.005 0 0 1 25.995 28H15.937C11.712 23.736 2.5 14.66 2.5 14.66z" fill-opacity=".1" fill="#000"/><path d="M19 5l11 8a3.5 3.5 0 0 1-7 0l-4-6-3 6a3.5 3.5 0 0 1-7 0l10-8z" fill="#3F4DAC"/><path d="M12 5l11 8a3.5 3.5 0 0 1-7 0l-4-6-3 6a3.5 3.5 0 0 1-7 0l10-8z" fill="#7CA4E7"/><path d="M16 4l-4 4-2-4H5.99c-1.099 0-2.185.88-2.424 1.953L2 13h7l3-3 4 3h7l1-5-2-4h-6z" fill="#80ADFA"/><path d="M16 4h-6l-1 9h7V4zm6 0h4.002c1.104 0 2.193.88 2.432 1.953L30 13h-7l-1-9z" fill="#4756BB"/><path d="M23.437 22h2.022a3 3 0 1 1-1.102-1.857l-.715.715A2 2 0 1 0 24.437 23H22.5v-1h.937z" fill="#F5F5F5"/></g></svg>