<svg viewBox="0 0 32 32" xmlns="http://www.w3.org/2000/svg"><g fill="none" fill-rule="evenodd"><path d="M6 3.991C6 2.891 6.893 2 8.003 2h10.996L21 7l5 2v19.005A1.997 1.997 0 0 1 24.01 30H7.99C6.892 30 6 29.1 6 28.009V3.99z" fill="#EA4335"/><path fill-opacity=".1" fill="#000" d="M19.585 8.415L21 9h5v5.83z"/><path d="M19 2l7 7h-4.994A1.999 1.999 0 0 1 19 6.994V2z" fill="#ECA5A0"/><path d="M16 25.747a.243.243 0 0 1-.243-.22c-.473-4.914-3.877-6.646-3.877-9.785a4.12 4.12 0 1 1 8.24 0c0 3.14-3.404 4.871-3.877 9.786a.243.243 0 0 1-.243.22zm0-8.631a1.373 1.373 0 1 0 0-2.747 1.373 1.373 0 0 0 0 2.747z" fill="#F5F5F5"/></g></svg>