<svg viewBox="0 0 32 32" xmlns="http://www.w3.org/2000/svg"><g fill="none" fill-rule="evenodd"><path fill="#EEE" d="M16 27V5.5L17.556 4l1.5 1.482L20.666 4l1.556 1.5L23.778 4l1.555 1.5L26.89 4l1.555 1.5L30 4v16l-5 2-2 5z"/><path d="M16 27H4.333C3.044 27 2 25.992 2 24.75V4l1.556 1.5L5.11 4l1.556 1.5L8.222 4l1.556 1.5L11.333 4l1.556 1.5L14.444 4 16 5.5V27z" fill="#E0E0E0"/><path d="M17.037 22v1H26v-1h-8.963zm0-2v1h10v-1h-10zm0-2v1h11v-1h-11zm0-2v1h11v-1h-11zm0-2v1h11v-1h-11z" fill="#BDBDBD"/><path fill="#03A9F4" d="M16 8h12v4H16z"/><path fill="#4285F4" d="M4 8h12v4H4z"/><path d="M23 27v-4.994c0-1.108.887-2.006 2.006-2.006H30l-7 7z" fill="#9E9E9E"/><path fill="#3F51B5" d="M4 14h12v11H4z"/><path d="M12.959 19a3 3 0 1 1-1.102-1.857l-.715.715A2 2 0 1 0 11.937 20H10v-1h2.959z" fill="#F5F5F5"/></g></svg>