<?xml version="1.0" encoding="UTF-8"?>
<svg width="32px" height="32px" viewBox="0 0 32 32" version="1.1" xmlns="http://www.w3.org/2000/svg" xmlns:xlink="http://www.w3.org/1999/xlink">
    <!-- Generator: Sketch 41.2 (35397) - http://www.bohemiancoding.com/sketch -->
    <title>now_32dp</title>
    <desc>Created with Sketch.</desc>
    <defs></defs>
    <g id="now" stroke="none" stroke-width="1" fill="none" fill-rule="evenodd">
        <g id="now_32dp">
            <circle id="b" fill="#4285F4" cx="16" cy="16" r="14"></circle>
            <path d="M16,22 C13.3585346,22 11.1157428,20.2930752 10.3144745,17.9220754 C10.1105547,17.3186648 10,16.6722431 10,16 C10,15.3277569 10.1105547,14.6813352 10.3144745,14.0779246 C11.1157428,11.7069248 13.3585346,10 16,10 C17.4020534,10 18.6917868,10.4808987 19.7132521,11.2867479 L22.5534769,8.44652311 C20.7983984,6.92248556 18.5069282,6 16,6 C12.0807687,6 8.68813717,8.25464195 7.04839264,11.5376387 C6.37746495,12.8809293 6,14.3963838 6,16 C6,17.6036162 6.37746495,19.1190707 7.04839264,20.4623613 C8.68813717,23.7453581 12.0807687,26 16,26 C18.4942925,26 20.7752934,25.0867902 22.5268976,23.5764759 C24.6536849,21.7426613 26,19.028555 26,16 C26,15.3150683 25.9311395,14.6462199 25.7999638,14 L16,14 L16,18 L21.6585886,18 C21.2141091,19.257548 20.3622952,20.3226788 19.2616784,21.0368609 C18.3227224,21.6461425 17.2026851,22 16,22 Z" id="a" fill="#FAFAFA"></path>
        </g>
    </g>
</svg>