<svg viewBox="0 0 32 32" xmlns="http://www.w3.org/2000/svg"><g fill="none" fill-rule="evenodd"><circle fill="#03A9F4" cx="16" cy="16" r="14"/><path d="M16 27c6.075 0 11-4.925 11-11S22.075 5 16 5 5 9.925 5 16s4.925 11 11 11z" fill="#F5F5F5"/><path d="M19.731 26.351L15.44 22.06l1-5.5-4-4 5.12-2.12 8.918 8.918a11.029 11.029 0 0 1-6.747 6.993z" fill-opacity=".05" fill="#000"/><path d="M18 20.995a1.499 1.499 0 1 1-3 0V13h-1.501A1.496 1.496 0 0 1 12 11.5c0-.834.67-1.5 1.499-1.5H16.5c.834 0 1.499.672 1.499 1.5v9.495z" fill="#03A9F4"/></g></svg>