<svg viewBox="0 0 32 32" xmlns="http://www.w3.org/2000/svg"><g fill="none" fill-rule="evenodd"><path fill="#FF9800" d="M17.455 8H8l8 8.727z"/><path fill="#AD1457" d="M24 17.455V8l-8.727 8z"/><path fill="#3367D6" d="M24 24h-9.455L16 15.273z"/><path fill="#34A853" d="M8 14.545V24l8.727-8z"/><path fill="#EA4335" d="M24 8l-8-8v16z"/><path fill="#8BC34A" d="M8 24l8 8V19l-.023-2.977z"/><path fill="#FFBC00" d="M0 16l8-8 8 8z"/><path fill="#4285F4" d="M32 16l-8 8-8-8z"/><path fill="#F5F5F5" d="M15.273 15.273L16 13.09l.727 2.182L18.91 16l-2.182.727L16 18.91l-.727-2.182L13.09 16z"/></g></svg>