<svg viewBox="0 0 32 32" xmlns="http://www.w3.org/2000/svg"><g fill="none" fill-rule="evenodd"><path d="M2 16c0 7.734 6.267 14 13.999 14S30 23.734 30 16c0-7.73-6.269-14-14.001-14C8.267 2 2 8.269 2 16z" fill="#EEE"/><path fill="#FFF" d="M18.901 19.997l1.796-5.524-4.7-3.414-4.698 3.414 1.794 5.524z"/><path d="M23.93 7.774a11.423 11.423 0 0 1 2.771 12.224L21.328 20a1 1 0 0 1-.947-1.32l3.55-10.906z" fill="#FBBC05"/><path d="M10.627 5.915a11.423 11.423 0 0 1 12.481 1.143l-1.657 5.111a1 1 0 0 1-1.549.492l-9.275-6.746z" fill="#EA4335"/><path d="M4.748 17.992A11.423 11.423 0 0 1 9.692 6.476l4.348 3.157a.998.998 0 0 1-.01 1.625l-9.281 6.736z" fill="#914196"/><path d="M14.418 27.317a11.422 11.422 0 0 1-9.425-8.261l4.345-3.16a1 1 0 0 1 1.543.512l3.537 10.909z" fill="#4285F4"/><path d="M26.274 21a11.424 11.424 0 0 1-10.77 6.413l-1.662-5.11a1 1 0 0 1 .642-1.26c.107-.034.216-.044.322-.043h11.468z" fill="#34A853"/></g></svg>