<svg viewBox="0 0 32 32" xmlns="http://www.w3.org/2000/svg"><g fill="none" fill-rule="evenodd"><path d="M4.836 2.078L21.122 16 4.836 29.922A1.26 1.26 0 0 1 4 28.733V3.267c0-.57.363-1.015.836-1.189z" fill="#0DF"/><path d="M18.585 22.948V9.052l10.752 5.838a1.26 1.26 0 0 1 0 2.22l-10.752 5.838z" fill="#FD0"/><path d="M23.078 20.508L18.585 16 4.748 29.886c.344.155.759.162 1.136-.043l17.194-9.335z" fill="#F1304C"/><path d="M23.078 11.492L18.585 16 4.748 2.114a1.266 1.266 0 0 1 1.136.043l17.194 9.335z" fill="#00F076"/></g></svg>