<svg viewBox="0 0 32 32" xmlns="http://www.w3.org/2000/svg"><g fill="none" fill-rule="evenodd"><path d="M9.08 7.198A11.984 11.984 0 0 0 4 17.003v9.995c0 1.108.897 2.005 2.005 2.005h19.99A2.005 2.005 0 0 0 28 26.998v-9.995c0-4.05-2.006-7.633-5.08-9.806l1.733-2.774a.747.747 0 0 0-.24-1.032.755.755 0 0 0-1.032.237L21.643 6.41A11.95 11.95 0 0 0 16 5.003c-2.04 0-3.961.51-5.643 1.407L8.619 3.628a.755.755 0 0 0-1.033-.237.747.747 0 0 0-.24 1.032L9.08 7.198z" fill="#8BC34A"/><path d="M28 27.056V17.003H4l12 12h9.995A2.005 2.005 0 0 0 28 27.056z" fill-opacity=".05" fill="#000"/><path d="M21 13.503a1.5 1.5 0 1 0 0-3 1.5 1.5 0 0 0 0 3zm-10 0a1.5 1.5 0 1 0 0-3 1.5 1.5 0 0 0 0 3z" fill="#F5F5F5"/></g></svg>