<svg viewBox="0 0 32 32" xmlns="http://www.w3.org/2000/svg"><g fill="none" fill-rule="evenodd"><path d="M18 16h12V4l-3.15 3.15A13.972 13.972 0 0 0 16 2l-3 3 3 4a6.994 6.994 0 0 1 5.848 3.152L18 16z" fill="#3367D6"/><path d="M30 16L16 2l-3 4 3 3a6.994 6.994 0 0 1 5.848 3.152L18 16h12z" fill-opacity=".1" fill="#000"/><path d="M16 14V2H4l3.15 3.15A13.972 13.972 0 0 0 2 16l4 4 3-4a6.994 6.994 0 0 1 3.152-5.848L16 14z" fill="#4285F4"/><path d="M10.152 19.848L14 16H2v12l3.15-3.15A13.972 13.972 0 0 0 16 30a13.96 13.96 0 0 0 9.9-4.1l-4.95-4.95A6.978 6.978 0 0 1 16 23a6.994 6.994 0 0 1-5.848-3.152z" fill="#BDBDBD"/></g></svg>