<svg viewBox="0 0 32 32" xmlns="http://www.w3.org/2000/svg"><g fill="none" fill-rule="evenodd"><circle fill="#EEE" cx="16" cy="16" r="14"/><path d="M10 16c0 .672.11 1.319.314 1.922l-3.266 2.54A9.959 9.959 0 0 1 6 16a9.95 9.95 0 0 1 1.048-4.462l3.266 2.54A5.993 5.993 0 0 0 10 16z" fill="#FBBC05"/><path d="M22.527 23.576l-3.265-2.54a6.003 6.003 0 0 1-8.947-3.115l-3.267 2.541A10 10 0 0 0 16 26a9.961 9.961 0 0 0 6.527-2.424z" fill="#34A853"/><path d="M7.048 11.538A10 10 0 0 1 16 6c2.507 0 4.798.922 6.553 2.447l-2.84 2.84a6.003 6.003 0 0 0-9.399 2.791l-3.266-2.54z" fill="#EA4335"/><path d="M21.659 18H16v-4h9.8c.131.646.2 1.315.2 2a9.977 9.977 0 0 1-3.473 7.576l-3.265-2.54A6.018 6.018 0 0 0 21.659 18z" fill="#4285F4"/></g></svg>