<svg viewBox="0 0 32 32" xmlns="http://www.w3.org/2000/svg"><g fill="none" fill-rule="evenodd"><path fill="gray" d="M20 3h-8l-2 2v2h2V5h8v2h2V5z"/><path d="M5.983 7L2 11.034V25.9c0 1.16.929 2.1 2.074 2.1h23.852C29.07 28 30 27.06 30 25.9V11.043L26.007 7H5.983z" fill="#EEE"/><path fill="#FFF" d="M5 15h22v13H5z"/><path fill="#E0E0E0" d="M26.007 7H5.983L2 11.098V15h28v-3.893z"/><path fill="#BDBDBD" d="M7 27h9v1H7z"/><path d="M6.63 11h18.74c.9 0 1.63.717 1.63 1.6V15H5v-2.4c0-.883.73-1.6 1.63-1.6z" fill="#4285F4"/><ellipse fill="#EEE" cx="7.444" cy="13.156" rx=".778" ry=".781"/><ellipse fill="#EEE" cx="10.037" cy="13.156" rx=".778" ry=".781"/><path d="M23.53 17.87l-1.004 3.392L18 16.8l-.055 6.896 1.656 2.606C19.85 26.254 18.363 28 18.363 28H27v-6.8l-3.47-3.33z" fill-opacity=".1" fill="#000"/><path d="M22.14 16.8v4.387L20.083 22.3l-2.09-1.112V16.8a4.692 4.692 0 0 0-2.592 4.208A4.7 4.7 0 0 0 18 25.215v2.78h4.142v-2.78c1.538-.77 2.622-2.362 2.622-4.207 0-1.845-1.082-3.44-2.622-4.208z" fill="#424242"/><path fill="#BDBDBD" d="M7 17h7v8H7z"/></g></svg>