<svg viewBox="0 0 32 32" xmlns="http://www.w3.org/2000/svg"><g fill="none" fill-rule="evenodd"><path d="M29 9l-13 2L3 9V6.991C3 5.891 3.895 5 4.997 5h22.006C28.106 5 29 5.89 29 6.991V9z" fill="#BDBDBD"/><path fill="#4285F4" d="M3 9h26v9l-13 2-13-2z"/><path fill-opacity=".05" fill="#000" d="M3 9h26v9l-15 2z"/><path d="M29 18H16l-2 4 2 5h11.003A1.995 1.995 0 0 0 29 25.009V18z" fill="#3367D6"/><path d="M16 27v-9H3v7.009C3 26.11 3.894 27 4.997 27H16z" fill="#EEE"/><path d="M5 24h6v1H5v-1zm0-2h9v1H5v-1zm0-2h9v1H5v-1z" fill="#BDBDBD"/><path d="M6 7.75a.75.75 0 1 0 0-1.5.75.75 0 0 0 0 1.5zm3 0a.75.75 0 1 0 0-1.5.75.75 0 0 0 0 1.5z" fill="#F5F5F5"/></g></svg>