<svg viewBox="0 0 48 48" xmlns="http://www.w3.org/2000/svg"><g fill="none" fill-rule="evenodd"><path d="M2 8a3 3 0 0 1 3.007-3h37.986A3.006 3.006 0 0 1 46 8v3l-22 3-22-3V8z" fill="#BDBDBD"/><path fill="#4285F4" d="M2 11h44v16l-22 3-22-3z"/><path fill-opacity=".1" fill="#000" d="M2 11h44v16l-25 3z"/><path d="M24 27h22v12.99A3.005 3.005 0 0 1 42.999 43H24l-3-8 3-8z" fill="#3367D6"/><path fill="#EEE" d="M2 27h22v16H2z"/><path d="M5 30h16v2H5v-2zm0 4h16v2H5v-2zm0 4h10v2H5v-2z" fill="#BDBDBD"/><path d="M6 9a1 1 0 1 0 0-2 1 1 0 0 0 0 2zm4 0a1 1 0 1 0 0-2 1 1 0 0 0 0 2z" fill="#F5F5F5"/></g></svg>