<svg viewBox="0 0 32 32" xmlns="http://www.w3.org/2000/svg"><g fill="none" fill-rule="evenodd"><path d="M30 16c0-7.732-6.268-14-14-14S2 8.268 2 16s6.268 14 14 14l14-14z" fill="#37474F"/><path d="M28.313 9.333c-9.476 2.15-17.096 9.19-20.068 18.325A13.935 13.935 0 0 0 16 30c7.732 0 14-6.268 14-14 0-2.414-.61-4.685-1.687-6.667z" fill="#4285F4"/><path d="M6.2 19.033a.35.35 0 1 0 0-.7.35.35 0 0 0 0 .7zm5.833-11.9a.35.35 0 1 0 0-.7.35.35 0 0 0 0 .7zm-1.866 3.617a.35.35 0 1 0 0-.7.35.35 0 0 0 0 .7zm-1.75 7.817a.467.467 0 1 0 0-.934.467.467 0 0 0 0 .934zM16.35 8.183a.35.35 0 1 0 0-.7.35.35 0 0 0 0 .7zm2.1-1.983a.583.583 0 1 0 0-1.167.583.583 0 0 0 0 1.167z" fill="#BBDEFB"/><path d="M7.95 14.95l13.3-4.55 8.44 8.543a14.026 14.026 0 0 1-7.77 9.747L7.95 14.95z" fill-opacity=".1" fill="#000"/><path d="M21.367 10.633l-3.85 12.95a.25.25 0 0 1-.234.234h-.116c-.117 0-.234 0-.234-.117l-3.266-5.6-5.717-3.15c-.117-.117-.117-.233-.117-.35a.25.25 0 0 1 .234-.233L20.9 10.283c.117 0 .233 0 .35.117 0 0 .126.205.117.233z" fill="#E0E0E0"/><path d="M21.308 10.459l.044.044.044.045-.03.085-3.85 12.95a.25.25 0 0 1-.233.234h-.116c-.117 0-.234 0-.234-.117l-3.266-5.6 7.641-7.641z" fill="#F5F5F5"/></g></svg>