<svg viewBox="0 0 32 32" xmlns="http://www.w3.org/2000/svg"><g fill="none" fill-rule="evenodd"><circle fill="#EA4335" cx="9.344" cy="19.091" r="7.344"/><ellipse fill="#FBBC05" cx="22.656" cy="12.894" rx="7.344" ry="7.344"/><path d="M9.344 24.6a5.508 5.508 0 1 0 0-11.017 5.508 5.508 0 0 0 0 11.016zm13.312-6.198a5.508 5.508 0 1 0 0-11.016 5.508 5.508 0 0 0 0 11.016z" fill="#F1F1F1"/><path d="M12.557 22.396a2.066 2.066 0 1 0 0-4.131 2.066 2.066 0 0 0 0 4.13zm8.263-4.524a2.066 2.066 0 1 0 0-4.13 2.066 2.066 0 0 0 0 4.13z" fill="#414141"/></g></svg>