<svg viewBox="0 0 32 32" xmlns="http://www.w3.org/2000/svg"><g fill="none" fill-rule="evenodd"><path d="M27.997 30C29.103 30 30 29.11 30 28.009V9.99C30 8.891 29.102 8 28.01 8H10l7 22h10.997z" fill="#EEE"/><path d="M21.768 19.56l-3.312 3.274.892.892 3.287-3.286 3.287 3.286.892-.892-3.312-3.274c1.1-1.259 1.955-2.75 2.346-4.289H27.4v-1.27h-4.13V12.73H22V14h-4.13v1.271h6.671s-.415 1.6-1.906 3.348a10.561 10.561 0 0 1-1.39-2.077h-1.393a11.353 11.353 0 0 0 1.916 3.018z" fill="#607D8B"/><path d="M16.91 8L30 21.09v6.919A1.996 1.996 0 0 1 27.997 30H17l-.09-22z" fill-opacity=".05" fill="#000"/><path fill="#4352B9" d="M22 24l-4-4-2.91 4L17 30z"/><path d="M4.003 2C2.897 2 2 2.89 2 3.991V22.01C2 23.109 2.898 24 3.99 24H22L15 2H4.003z" fill="#4285F4"/><path d="M10.25 15.883a3.023 3.023 0 1 1 1.662-5.548l1.237-1.238a4.75 4.75 0 1 0 1.772 2.9H10.25v1.727h2.898a3.024 3.024 0 0 1-2.898 2.159z" fill="#F5F5F5"/></g></svg>