<svg viewBox="0 0 32 32" xmlns="http://www.w3.org/2000/svg"><g fill="none" fill-rule="evenodd"><path d="M23 11L2 16c0 7.732 6.268 14 14 14l7-19z" fill="#4285F4"/><path d="M9.5 23.5L16 2c7.732 0 14 6.268 14 14L9.5 23.5z" fill="#FBBC05"/><path d="M16 30V16h14c0 7.732-6.268 14-14 14z" fill="#34A853"/><path d="M16 16V2C8.268 2 2 8.268 2 16h14z" fill="#EA4335"/><circle fill="#F5F5F5" cx="16" cy="16" r="10"/><path d="M22.362 28.474l-6.705-7.22L27.042 7.393A13.94 13.94 0 0 1 30 16c0 5.441-3.104 10.157-7.638 12.474z" fill-opacity=".1" fill="#000"/><path fill="#34A853" d="M15.77 21.353L27.1 7.6h-2.833l-8.497 8.922L10.4 13.3v1.61z"/></g></svg>