<svg viewBox="0 0 32 32" xmlns="http://www.w3.org/2000/svg"><g fill="none" fill-rule="evenodd"><path d="M4 8V6.005C4 4.898 4.897 4 6.005 4h19.99C27.102 4 28 4.897 28 6.005v19.99A2.005 2.005 0 0 1 25.995 28H6.005A2.005 2.005 0 0 1 4 25.995V24h-.99C2.451 24 2 23.556 2 23v-3a1 1 0 0 1 1.01-1H4v-6h-.99C2.451 13 2 12.556 2 12V9a1 1 0 0 1 1.01-1H4z" fill="#4285F4"/><path d="M24 13.99c0-.546.444-.99 1-.99a1 1 0 0 1 1 .99v4.02c0 .546-.444.99-1 .99a1 1 0 0 1-1-.99v-4.02z" fill="#F5F5F5"/><path d="M28 19.928V13.86l-4.93-4.93-4.368 4.049-5.065.903-.633 4.212L8.93 23.07 13.86 28h12.135A2.005 2.005 0 0 0 28 25.995v-6.067z" fill-opacity=".1" fill="#000"/><path d="M19.446 13.968l3.63-3.63c.38-.38.386-1.019-.005-1.408a.993.993 0 0 0-1.408-.007l-3.631 3.63A3.981 3.981 0 0 0 16 12c-.742 0-1.436.202-2.032.554l-3.63-3.63a1.003 1.003 0 0 0-1.41.005.993.993 0 0 0-.005 1.408l3.63 3.631A3.981 3.981 0 0 0 12 16c0 .742.202 1.436.554 2.032l-3.63 3.63c-.38.38-.386 1.019.005 1.408a.993.993 0 0 0 1.408.007l3.631-3.63c.596.351 1.29.553 2.032.553s1.436-.202 2.032-.554l3.63 3.63c.38.38 1.019.386 1.41-.005a.993.993 0 0 0 .005-1.408l-3.63-3.631c.351-.596.553-1.29.553-2.032s-.202-1.436-.554-2.032zM18 16a2 2 0 1 0-4 0 2 2 0 0 0 4 0z" fill="#F5F5F5"/></g></svg>