<svg viewBox="0 0 32 32" xmlns="http://www.w3.org/2000/svg"><g fill="none" fill-rule="evenodd"><path d="M3 29l7-5h17.003A1.996 1.996 0 0 0 29 22.005V4.995A2.002 2.002 0 0 0 27.003 3H4.997A1.996 1.996 0 0 0 3 4.995V29z" fill="#4285F4"/><path d="M29 22.003V22L13.35 6.2l-3.1 2.025 2.925 8.625L20 24h7.005A1.996 1.996 0 0 0 29 22.005v-.002z" fill-opacity=".1" fill="#000"/><path d="M20.167 15.917c-.25-.084-.584 0-.834.166L17.5 17.917c-2.333-1.167-4.25-3.167-5.5-5.5l1.833-1.834c.25-.25.334-.583.167-.833-.25-.917-.417-1.917-.417-2.917 0-.5-.333-.833-.833-.833H9.833c-.5 0-.833.333-.833.833C9 14.667 15.333 21 23.167 21c.5 0 .833-.333.833-.833V17.25c0-.5-.333-.833-.833-.833-1 0-2-.167-3-.5z" fill="#F5F5F5"/></g></svg>