<svg viewBox="0 0 32 32" xmlns="http://www.w3.org/2000/svg"><g fill="none" fill-rule="evenodd"><path d="M23 14h4a8 8 0 0 1-8 8v-4a4 4 0 0 0 4-4z" fill="#E0E0E0"/><path d="M23 14h6c0-6.075-4.925-11-11-11v6a5 5 0 0 1 5 5z" fill="#EA4335"/><path d="M12 15H4C4 7.268 10.268 1 18 1v8a6 6 0 0 0-6 6z" fill="#4285F4"/><path d="M19 22v10C9.611 32 2 24.389 2 15h10a7 7 0 0 0 7 7z" fill="#FBBC05"/><path d="M25 14h-2l3.776 1.888A8.02 8.02 0 0 0 27 14h-2zm-20.863-.966L12 15H4c0-.667.047-1.323.137-1.966zm15.806-9.863L18 9V3c.663 0 1.312.059 1.943.171z" fill-opacity=".1" fill="#000"/></g></svg>