<svg viewBox="0 0 174 48" xmlns="http://www.w3.org/2000/svg"><path d="M37.0165214,19.6 C33.8133333,19.6 31.2096724,22.0342857 31.2096724,25.3942857 C31.2096724,28.7371429 33.8133333,31.1885714 37.0165214,31.1885714 C40.2197096,31.1885714 42.8233705,28.7371429 42.8233705,25.3942857 C42.8404998,22.0342857 40.2197096,19.6 37.0165214,19.6 Z M37.0165214,28.8914286 C35.2693279,28.8914286 33.7448159,27.4514286 33.7448159,25.3771429 C33.7448159,23.2857143 35.2521986,21.8628571 37.0165214,21.8628571 C38.7808443,21.8628571 40.288227,23.2857143 40.288227,25.3771429 C40.288227,27.4514286 38.7808443,28.8914286 37.0165214,28.8914286 Z M24.3408038,19.6 C21.1376157,19.6 18.5339547,22.0342857 18.5339547,25.3942857 C18.5339547,28.7371429 21.1376157,31.1885714 24.3408038,31.1885714 C27.5439919,31.1885714 30.1476528,28.7371429 30.1476528,25.3942857 C30.1476528,22.0342857 27.5439919,19.6 24.3408038,19.6 Z M24.3408038,28.8914286 C22.5936103,28.8914286 21.0690983,27.4514286 21.0690983,25.3771429 C21.0690983,23.2857143 22.5764809,21.8628571 24.3408038,21.8628571 C26.0879973,21.8628571 27.6125093,23.2857143 27.6125093,25.3771429 C27.6125093,27.4514286 26.1051266,28.8914286 24.3408038,28.8914286 Z M9.26697737,21.3657143 L9.26697737,23.8171429 L15.1423438,23.8171429 C14.9710503,25.2057143 14.5085579,26.2171429 13.8062546,26.9028571 C12.9497872,27.76 11.6136981,28.7028571 9.26697737,28.7028571 C5.6526849,28.7028571 2.82634245,25.7885714 2.82634245,22.1714286 C2.82634245,18.5542857 5.6526849,15.64 9.26697737,15.64 C11.2197231,15.64 12.641459,16.4114286 13.7034786,17.3885714 L15.4335427,15.6571429 C13.9604188,14.2514286 12.0076731,13.1714286 9.26697737,13.1714286 C4.31659574,13.1714286 0.137034786,17.2171429 0.137034786,22.1714286 C0.137034786,27.1257143 4.2994664,31.1714286 9.26697737,31.1714286 C11.9391557,31.1714286 13.9604188,30.2971429 15.5363188,28.6514286 C17.1636069,27.0228571 17.660358,24.7428571 17.660358,22.9085714 C17.660358,22.3428571 17.6089699,21.8114286 17.5233232,21.3657143 L9.26697737,21.3657143 Z M70.9326309,23.2857143 C70.4530091,21.9828571 68.9798852,19.6 65.9822492,19.6 C63.0017427,19.6 60.5179872,21.9485714 60.5179872,25.3942857 C60.5179872,28.6342857 62.967484,31.1885714 66.2563188,31.1885714 C68.9113678,31.1885714 70.4358798,29.56 71.086795,28.6171429 L69.11692,27.2971429 C68.4660047,28.2571429 67.5581493,28.8914286 66.2734482,28.8914286 C64.9716177,28.8914286 64.0637622,28.2914286 63.4642351,27.1428571 L71.2067004,23.9371429 L70.9326309,23.2857143 Z M63.0360014,25.2057143 C62.967484,22.96 64.7660655,21.8285714 66.067896,21.8285714 C67.0785275,21.8285714 67.9349949,22.3257143 68.2090645,23.0628571 L63.0360014,25.2057143 Z M56.7495306,30.8285714 L59.2846741,30.8285714 L59.2846741,13.8057143 L56.7495306,13.8057143 L56.7495306,30.8285714 Z M52.587099,20.8857143 L52.5014522,20.8857143 C51.9361837,20.2 50.8399054,19.5828571 49.4524282,19.5828571 C46.5575684,19.5828571 43.9025194,22.12 43.9025194,25.3942857 C43.9025194,28.6342857 46.5575684,31.1714286 49.4524282,31.1714286 C50.8399054,31.1714286 51.9361837,30.5542857 52.5014522,29.8514286 L52.587099,29.8514286 L52.587099,30.6914286 C52.587099,32.9028571 51.4051739,34.0857143 49.5038163,34.0857143 C47.9450456,34.0857143 46.9858021,32.9714286 46.5918271,32.0285714 L44.3821412,32.9542857 C45.0159271,34.4971429 46.7117325,36.3828571 49.5209456,36.3828571 C52.5014522,36.3828571 55.0194664,34.6342857 55.0194664,30.3485714 L55.0194664,19.9428571 L52.587099,19.9428571 L52.587099,20.8857143 Z M49.6579804,28.8914286 C47.9107869,28.8914286 46.437663,27.4171429 46.437663,25.3942857 C46.437663,23.3542857 47.9107869,21.8628571 49.6579804,21.8628571 C51.3880446,21.8628571 52.7412631,23.3542857 52.7412631,25.3942857 C52.7583924,27.4342857 51.3880446,28.8914286 49.6579804,28.8914286 Z M82.8546572,13.8057143 L76.7737386,13.8057143 L76.7737386,30.8285714 L79.3088821,30.8285714 L79.3088821,24.3828571 L82.8546572,24.3828571 C85.6638703,24.3828571 88.4388247,22.3428571 88.4388247,19.1028571 C88.4216954,15.8457143 85.6638703,13.8057143 82.8546572,13.8057143 Z M82.9060453,22 L79.3088821,22 L79.3088821,16.1714286 L82.9060453,16.1714286 C84.8074029,16.1714286 85.8865518,17.7485714 85.8865518,19.0857143 C85.8865518,20.4057143 84.8074029,22 82.9060453,22 Z M98.6136575,19.5657143 C96.7808173,19.5657143 94.8623303,20.3714286 94.0743803,22.1714286 L96.3354542,23.1142857 C96.815076,22.1714286 97.7229314,21.8628571 98.6479162,21.8628571 C99.9668761,21.8628571 101.302965,22.6514286 101.320095,24.0571429 L101.320095,24.2285714 C100.857602,23.9714286 99.8812293,23.5771429 98.6650456,23.5771429 C96.2326781,23.5771429 93.766052,24.9142857 93.766052,27.4171429 C93.766052,29.6971429 95.7530564,31.1714286 97.997001,31.1714286 C99.7099358,31.1714286 100.65205,30.4 101.234448,29.5085714 L101.320095,29.5085714 L101.320095,30.8285714 L103.769591,30.8285714 L103.769591,24.2971429 C103.769591,21.2457143 101.525647,19.5657143 98.6136575,19.5657143 Z M98.3053293,28.8914286 C97.4659912,28.8914286 96.3183249,28.48 96.3183249,27.4514286 C96.3183249,26.1314286 97.7571901,25.6342857 99.0076326,25.6342857 C100.12104,25.6342857 100.65205,25.8742857 101.320095,26.2 C101.131672,27.7771429 99.7613239,28.8914286 98.3053293,28.8914286 Z M112.711111,19.9428571 L109.799122,27.3314286 L109.713475,27.3314286 L106.69871,19.9428571 L103.958014,19.9428571 L108.497291,30.2628571 L105.91076,36.0057143 L108.565809,36.0057143 L115.554583,19.9428571 L112.711111,19.9428571 Z M89.8263019,30.8285714 L92.3614455,30.8285714 L92.3614455,13.8057143 L89.8263019,13.8057143 L89.8263019,30.8285714 Z" opacity="0.54"></path><path d="M120.316542,30.8285714 L120.316542,15.1257143 L122.337805,15.1257143 L127.802067,24.6914286 L127.887714,24.6914286 L133.351976,15.1257143 L135.373239,15.1257143 L135.373239,30.8285714 L133.351976,30.8285714 L133.351976,21.5028571 L133.437622,18.8628571 L133.351976,18.8628571 L128.435853,27.4857143 L127.253928,27.4857143 L122.337805,18.8628571 L122.252158,18.8628571 L122.337805,21.5028571 L122.337805,30.8285714 L120.316542,30.8285714 Z M147.278136,30.8285714 L145.342519,30.8285714 L145.342519,29.3371429 L145.256873,29.3371429 C144.948544,29.8514286 144.486052,30.28 143.852266,30.64 C143.21848,31 142.550436,31.1714286 141.865262,31.1714286 C140.512043,31.1714286 139.501412,30.76 138.799108,29.9371429 C138.096805,29.1142857 137.754218,28.0171429 137.754218,26.6457143 L137.754218,20.0628571 L139.775481,20.0628571 L139.775481,26.32 C139.775481,28.3257143 140.666207,29.32 142.43053,29.32 C143.269868,29.32 143.937913,28.9771429 144.468923,28.3085714 C144.999932,27.64 145.256873,26.8685714 145.256873,25.9771429 L145.256873,20.0457143 L147.278136,20.0457143 L147.278136,30.8285714 Z M153.496089,31.1714286 C152.297035,31.1714286 151.303533,30.88 150.532712,30.2971429 C149.744762,29.7142857 149.179493,28.9771429 148.819777,28.1028571 L150.618359,27.3485714 C151.183627,28.7028571 152.16,29.3714286 153.530348,29.3714286 C154.164134,29.3714286 154.678014,29.2342857 155.071989,28.96 C155.465964,28.6857143 155.671516,28.3085714 155.671516,27.8628571 C155.671516,27.16 155.174765,26.68 154.198392,26.44 L152.022965,25.9085714 C151.337791,25.7371429 150.686876,25.3942857 150.07022,24.9142857 C149.453563,24.4171429 149.145235,23.7657143 149.145235,22.9257143 C149.145235,21.9828571 149.573468,21.2114286 150.412806,20.6114286 C151.252145,20.0114286 152.245647,19.72 153.410442,19.72 C154.352557,19.72 155.209024,19.9428571 155.945586,20.3714286 C156.699277,20.8 157.230287,21.4171429 157.538615,22.2228571 L155.791422,22.9428571 C155.397447,22 154.575238,21.52 153.341925,21.52 C152.742398,21.52 152.245647,21.64 151.834542,21.8971429 C151.423438,22.1542857 151.217886,22.48 151.217886,22.9085714 C151.217886,23.5257143 151.697508,23.9371429 152.639622,24.16 L154.763661,24.6571429 C155.774292,24.8971429 156.510854,25.2914286 157.007606,25.8571429 C157.487227,26.4228571 157.727038,27.0742857 157.727038,27.7942857 C157.727038,28.7542857 157.333063,29.56 156.545113,30.2114286 C155.757163,30.8628571 154.746532,31.1714286 153.496089,31.1714286 Z M161.341331,17.3714286 C161.067261,17.6457143 160.724674,17.7828571 160.330699,17.7828571 C159.936724,17.7828571 159.594137,17.6457143 159.320068,17.3714286 C159.045998,17.0971429 158.908963,16.7542857 158.908963,16.36 C158.908963,15.9657143 159.045998,15.6228571 159.320068,15.3485714 C159.594137,15.0742857 159.936724,14.9371429 160.330699,14.9371429 C160.724674,14.9371429 161.067261,15.0742857 161.341331,15.3485714 C161.6154,15.6228571 161.752435,15.9657143 161.752435,16.36 C161.769564,16.7714286 161.6154,17.0971429 161.341331,17.3714286 Z M161.341331,30.8285714 L159.320068,30.8285714 L159.320068,20.08 L161.341331,20.08 L161.341331,30.8285714 Z M168.672692,31.1714286 C167.062533,31.1714286 165.743573,30.6228571 164.698683,29.5428571 C163.653793,28.4457143 163.139912,27.0914286 163.139912,25.4457143 C163.139912,23.8 163.653793,22.4457143 164.698683,21.3485714 C165.743573,20.2514286 167.062533,19.72 168.672692,19.72 C169.871746,19.72 170.865248,20.0114286 171.653198,20.5942857 C172.441148,21.1771429 173.023546,21.9142857 173.383262,22.8057143 L171.533293,23.5771429 C170.985154,22.24 169.974522,21.5542857 168.535657,21.5542857 C167.644931,21.5542857 166.856981,21.9142857 166.171807,22.6514286 C165.486633,23.3885714 165.144046,24.3142857 165.144046,25.4457143 C165.144046,26.5771429 165.486633,27.5028571 166.171807,28.24 C166.856981,28.9771429 167.644931,29.3371429 168.535657,29.3371429 C170.04304,29.3371429 171.0708,28.6685714 171.653198,27.3142857 L173.45178,28.0857143 C173.092063,28.96 172.492536,29.6971429 171.687457,30.2971429 C170.865248,30.88 169.871746,31.1714286 168.672692,31.1714286 Z" fill="#FF5722"></path></svg>